<?xml version="1.0" encoding="UTF-8"?>
<svg version="1.1" xmlns="http://www.w3.org/2000/svg" width="500" height="500">
<path d="M0 0 C1.39223698 -0.01685053 2.78442834 -0.03791161 4.17654419 -0.06283569 C7.93990143 -0.11674615 11.70059728 -0.10758589 15.46416879 -0.08343458 C18.61510368 -0.06911988 21.76555412 -0.08620554 24.91645116 -0.10324538 C32.35636972 -0.14309355 39.79500239 -0.13208353 47.23486328 -0.08789062 C54.88750529 -0.04320346 62.53676947 -0.07830973 70.18909198 -0.1539892 C76.7790149 -0.21665035 83.36789742 -0.23223172 89.95808095 -0.2100817 C93.88540496 -0.19716177 97.81078341 -0.20083509 101.7378788 -0.24872971 C128.7688488 -0.54380207 128.7688488 -0.54380207 135.06490612 5.52370262 C137.07590184 7.96112341 138.62150861 10.56045407 140.1394043 13.32568359 C141.3118026 14.7314491 142.51288951 16.1148673 143.7644043 17.45068359 C144.30581055 18.07587891 144.8472168 18.70107422 145.4050293 19.34521484 C147.41204968 21.63701515 149.46343281 23.88565112 151.5144043 26.13818359 C155.53303346 30.57513422 159.29661825 35.1772554 162.9987793 39.88037109 C165.24700674 42.44860171 167.25680311 44.48609993 170.1394043 46.32568359 C172.68572683 46.37395069 172.68572683 46.37395069 175.3269043 45.57568359 C189.56864465 42.64304409 205.56708384 42.69852477 218.08227539 50.79321289 C221.70848192 53.49457753 224.62967161 56.78250022 227.6394043 60.13818359 C229.02255847 61.64547122 230.40804636 63.15062009 231.7956543 64.65380859 C232.85719727 65.80526367 232.85719727 65.80526367 233.94018555 66.97998047 C237.58661381 70.86928805 241.3573913 74.63127622 245.1394043 78.38818359 C245.84000977 79.08468018 246.54061523 79.78117676 247.26245117 80.4987793 C248.88601672 82.10987789 250.51146344 83.71900805 252.1394043 85.32568359 C250.72209443 89.85789467 249.22624529 94.28687592 247.24487305 98.60693359 C246.77210938 99.65300781 246.77210938 99.65300781 246.28979492 100.72021484 C245.64444719 102.1313403 244.98273163 103.5350873 244.30541992 104.93115234 C241.16848388 112.01709137 242.73150135 116.63030956 245.41259766 123.66748047 C245.90085034 124.90827141 246.39057048 126.14848569 246.8815918 127.38818359 C247.25865013 128.34863586 247.25865013 128.34863586 247.64332581 129.32849121 C247.89984421 129.98111938 248.15636261 130.63374756 248.4206543 131.30615234 C248.68104492 131.96921387 248.94143555 132.63227539 249.2097168 133.31542969 C249.74274744 134.64703597 250.28982964 135.9731099 250.85131836 137.29296875 C251.12427734 137.93927246 251.39723633 138.58557617 251.6784668 139.25146484 C252.04488281 140.09898315 252.04488281 140.09898315 252.41870117 140.96362305 C254.73880936 147.65731048 255.51000746 152.23503545 253.57617188 159.11254883 C253.29400456 160.20534606 253.29400456 160.20534606 253.00613689 161.32021999 C252.60382205 162.87100865 252.19331712 164.41969276 251.775177 165.96628952 C251.14958361 168.28790751 250.5502011 170.61466214 249.95935059 172.94534302 C248.69457326 177.92320929 247.39650071 182.8920927 246.09643555 187.86083984 C245.6098192 189.72652956 245.12335263 191.59225835 244.63702393 193.45802307 C243.34447287 198.41420342 242.0491595 203.36965747 240.7530098 208.32489777 C239.94889069 211.3997071 239.14546771 214.47469752 238.34225464 217.54974365 C231.51831169 243.67271192 224.67038709 269.7893422 217.74908066 295.88669968 C217.20235242 297.94899325 216.65635407 300.01147893 216.11050415 302.07400513 C215.11396857 305.83837035 214.11342185 309.60166147 213.11206055 313.36474609 C212.67630707 315.01102745 212.67630707 315.01102745 212.23175049 316.69056702 C211.9680365 317.67826584 211.70432251 318.66596466 211.43261719 319.68359375 C211.20522354 320.53861481 210.9778299 321.39363586 210.74354553 322.27456665 C210.1394043 324.32568359 210.1394043 324.32568359 209.1394043 326.32568359 C210.25907593 326.31569084 210.25907593 326.31569084 211.40136719 326.30549622 C218.46259435 326.24519175 225.52373114 326.19961145 232.58514404 326.17024708 C236.21483414 326.1546426 239.84431008 326.13350102 243.47387695 326.09936523 C246.98170046 326.0665838 250.48931897 326.0487914 253.99728394 326.04105186 C255.97579719 326.03287441 257.95422888 326.00948536 259.93261719 325.98579407 C274.28647575 325.98312954 274.28647575 325.98312954 279.65014648 330.63630676 C285.15375129 336.69508574 285.43578539 343.14024361 285.4140625 350.87597656 C285.4217289 352.29179016 285.4217289 352.29179016 285.42955017 353.73620605 C285.44341501 356.84682613 285.44249163 359.95722385 285.44018555 363.06787109 C285.44407434 365.23731569 285.44840939 367.40675953 285.45317078 369.57620239 C285.46062643 374.12048817 285.46034654 378.66469625 285.45507812 383.20898438 C285.44928617 389.02166865 285.46621126 394.83403401 285.4894228 400.64666557 C285.5041818 405.12661589 285.50502884 409.60648979 285.50191307 414.08646011 C285.50242525 416.22899125 285.50764349 418.37152679 285.51772499 420.51403427 C285.53011312 423.51509849 285.52328311 426.51554661 285.51171875 429.51660156 C285.51936249 430.39478546 285.52700623 431.27296936 285.53488159 432.17776489 C285.47608321 439.10947368 284.2848446 444.65837943 279.8269043 450.20068359 C274.70140208 454.25340628 269.51333769 454.61571924 263.17160034 454.55705261 C261.99442229 454.55833277 261.99442229 454.55833277 260.79346287 454.5596388 C258.1728371 454.56025104 255.55247394 454.54675566 252.93188477 454.53344727 C251.04901717 454.53128509 249.16614824 454.53009931 247.28327942 454.52981567 C243.23182435 454.52776197 239.1804325 454.52006758 235.12899399 454.5083828 C228.71504191 454.49120561 222.30120237 454.49447969 215.88723755 454.50202942 C197.64929143 454.52120169 179.4114908 454.52794857 161.17358398 454.48022461 C151.09821832 454.45402765 141.02317311 454.45280005 130.94780457 454.47937185 C125.62081383 454.49233523 120.29451806 454.49241293 114.96758652 454.4615078 C109.9521737 454.4324683 104.93782338 454.43611404 99.92241478 454.46411514 C98.08912382 454.46858985 96.2557571 454.46125887 94.422575 454.44078636 C82.77638655 454.31896304 75.82597995 455.4441057 66.1394043 462.32568359 C63.24282981 463.29120842 61.10694653 463.5873295 58.0769043 463.70068359 C57.19905273 463.74966797 56.32120117 463.79865234 55.41674805 463.84912109 C44.65577183 462.13044313 35.05771422 453.73948924 26.2644043 447.70068359 C24.74968077 446.66720014 23.23453771 445.63433132 21.71899414 444.60205078 C18.65005812 442.51062049 15.58326843 440.41610328 12.51831055 438.31884766 C6.84454182 434.4378882 1.15373854 430.5822021 -4.53741455 426.72680664 C-6.79881548 425.19390144 -9.05845187 423.6584058 -11.31814575 422.12298584 C-16.03780906 418.91623498 -20.76144378 415.71555604 -25.49258423 412.52575684 C-28.01109467 410.8274318 -30.52808198 409.12685656 -33.04498291 407.42614746 C-34.22713585 406.62824291 -35.41000231 405.83139413 -36.59368896 405.0357666 C-59.74448976 389.47312054 -78.68954744 374.50196105 -87.71191406 347.19921875 C-87.96861091 346.42400187 -88.22530775 345.64878498 -88.48978329 344.85007668 C-91.5956827 335.29055943 -94.099092 325.5769361 -96.61450195 315.84912109 C-97.15400411 313.78197048 -97.69407394 311.71496795 -98.23466492 309.64810181 C-99.67405557 304.1387867 -101.10616215 298.62760514 -102.53639221 293.11590576 C-104.93398008 283.88136984 -107.34240629 274.64964786 -109.74818802 265.41724396 C-110.66294915 261.90558562 -111.5767878 258.39368807 -112.49057007 254.8817749 C-116.13945785 240.86726919 -119.83156364 226.86505196 -123.57064629 212.87434769 C-125.05733914 207.30786863 -126.53755043 201.73966106 -128.0184145 196.17162895 C-129.39708956 190.99176477 -130.78686424 185.81503708 -132.18440723 180.64023399 C-133.03914578 177.46426463 -133.88294307 174.28546618 -134.72364235 171.10575485 C-135.11065316 169.65133097 -135.50229104 168.19812874 -135.89902306 166.74632645 C-136.4365619 164.7773876 -136.95615444 162.80357552 -137.47485352 160.82958984 C-137.91562225 159.1871228 -137.91562225 159.1871228 -138.36529541 157.51147461 C-139.34232059 151.22721011 -137.49103282 145.72479783 -135.3215332 139.88818359 C-134.81842622 138.4847179 -134.3158376 137.08106631 -133.8137207 135.67724609 C-133.02541627 133.49613944 -132.23241062 131.31704719 -131.42993164 129.14111328 C-130.65082626 127.01984354 -129.891318 124.89232386 -129.1340332 122.76318359 C-128.7700795 121.80037476 -128.7700795 121.80037476 -128.39877319 120.81811523 C-126.1860605 114.52335567 -127.12689148 109.42939114 -129.7434082 103.44287109 C-130.28674805 102.15703125 -130.28674805 102.15703125 -130.84106445 100.84521484 C-131.60816725 99.0727623 -132.37904346 97.30193839 -133.15356445 95.53271484 C-133.51321289 94.67806641 -133.87286133 93.82341797 -134.2434082 92.94287109 C-134.74445068 91.79214111 -134.74445068 91.79214111 -135.25561523 90.61816406 C-136.00742941 87.76927984 -135.65604844 86.15250781 -134.8605957 83.32568359 C-133.5480957 81.4985199 -133.5480957 81.4985199 -131.8605957 79.79223633 C-131.22903564 79.14483994 -130.59747559 78.49744354 -129.94677734 77.83042908 C-128.91411743 76.80520897 -128.91411743 76.80520897 -127.8605957 75.75927734 C-126.79603149 74.68541527 -126.79603149 74.68541527 -125.70996094 73.58985901 C-124.20512971 72.07792777 -122.69513947 70.57111637 -121.18041992 69.0690918 C-118.88103488 66.78350016 -116.60654045 64.47508789 -114.33325195 62.16357422 C-112.86465216 60.69402248 -111.39464332 59.22587725 -109.9230957 57.75927734 C-109.25084961 57.07377304 -108.57860352 56.38826874 -107.88598633 55.68199158 C-97.91617375 45.90243035 -85.95589706 44.05117155 -72.39575195 44.08349609 C-69.71563739 44.26710615 -67.39683745 44.58005843 -64.79418945 45.13037109 C-57.24986951 46.8936152 -57.24986951 46.8936152 -50.16137695 44.61865234 C-47.78683201 41.98717584 -45.83047485 39.27082708 -43.8605957 36.32568359 C-42.46272068 34.56063689 -41.04563031 32.81065337 -39.6105957 31.07568359 C-38.87454102 30.16431641 -38.13848633 29.25294922 -37.38012695 28.31396484 C-33.97650475 24.2771106 -30.37920236 20.43753212 -26.72875977 16.62353516 C-26.21410156 16.08051758 -25.69944336 15.5375 -25.16918945 14.97802734 C-24.40541001 14.18235068 -24.40541001 14.18235068 -23.62620068 13.37059975 C-21.77971546 11.33259368 -21.77971546 11.33259368 -20.27477741 8.82811546 C-14.69096975 0.40204273 -9.72094305 -0.12874969 0 0 Z " fill="#FD3C06" transform="translate(191.860595703125,17.67431640625)"/>
<path d="M0 0 C0.96808594 0.32355469 1.93617188 0.64710937 2.93359375 0.98046875 C3.87525391 1.29564453 3.87525391 1.29564453 4.8359375 1.6171875 C11.02971141 2.68985225 17.1253963 1.79867642 23.23828125 0.703125 C24.3843132 0.50691811 24.3843132 0.50691811 25.55349731 0.30674744 C27.97299232 -0.10826349 30.39084459 -0.53197769 32.80859375 -0.95703125 C38.19906371 -1.89697752 43.59133163 -2.81991362 48.99273682 -3.69503784 C50.70108588 -3.98065807 52.40367196 -4.300306 54.10498047 -4.62524414 C56.49663075 -5.01288097 58.52809094 -5.29023424 60.93359375 -5.01953125 C63.47250133 -3.14717065 64.58492047 -2.05824965 66.30859375 0.41796875 C66.7579126 1.00344482 67.20723145 1.5889209 67.67016602 2.19213867 C69.12322339 4.09973063 70.52677624 6.03861033 71.93359375 7.98046875 C72.91044469 9.27227498 73.89094008 10.56133313 74.875 11.84765625 C76.90330577 14.50916492 78.90793349 17.18612632 80.89453125 19.87890625 C82.89616571 22.59108876 84.92093864 25.28254148 86.97265625 27.95703125 C113.11461732 62.12096974 113.11461732 62.12096974 112.2734375 73.8359375 C110.98852349 81.94418799 107.09598021 86.55739612 101.45605469 92.39746094 C99.73761503 94.18424137 98.04183809 95.99098595 96.34765625 97.80078125 C92.92870336 101.45071557 89.49815301 105.08950006 86.06396484 108.72509766 C80.63469555 114.47293054 75.2122282 120.22711211 69.80126953 125.9921875 C68.57448256 127.29819444 67.34633354 128.60292354 66.11669922 129.90625 C64.44712161 131.67694353 62.78336545 133.45291876 61.12109375 135.23046875 C60.63543945 135.74319336 60.14978516 136.25591797 59.64941406 136.78417969 C55.99690499 140.70938147 53.21192382 143.77523821 52.52734375 149.19921875 C53.04602693 154.02696216 54.6493185 157.99537695 56.43359375 162.48046875 C60.48489544 173.44222271 62.53582227 183.15177115 57.49609375 194.29296875 C52.31670141 203.30535401 44.99626101 212.33478959 34.93359375 215.98046875 C28.8583881 216.50333481 24.53687861 215.52075024 18.99609375 213.10546875 C18.2695459 212.79593262 17.54299805 212.48639648 16.79443359 212.16748047 C3.9509421 206.5147978 -7.55136522 199.25536375 -18.06640625 189.98046875 C-18.78054688 189.40941406 -19.4946875 188.83835937 -20.23046875 188.25 C-25.74854679 183.76523001 -30.8723405 178.37770015 -34.06640625 171.98046875 C-33.86113716 166.66333705 -32.27986013 164.43385255 -28.52734375 160.95703125 C-20.06426107 154.15969818 -10.63122416 148.67474907 -1.29785156 143.17773438 C3.76858307 140.16000719 8.48300062 136.84967809 12.93359375 132.98046875 C13.5059375 132.56539062 14.07828125 132.1503125 14.66796875 131.72265625 C16.83857775 128.73471916 16.39266647 126.59207991 15.93359375 122.98046875 C14.54107048 119.51180635 12.7578292 116.3010646 10.93359375 113.04296875 C9.92647974 111.17350212 8.91997518 109.30370705 7.9140625 107.43359375 C6.49002538 104.82217373 5.06171088 102.21323483 3.62744141 99.60742188 C-3.98471102 85.68418156 -3.98471102 85.68418156 -3.8359375 78.19140625 C-1.97057127 72.83202916 2.06893276 69.49284433 7.00920105 67.00906372 C7.65069595 66.70829926 8.29219086 66.40753479 8.953125 66.09765625 C9.64275833 65.76410126 10.33239166 65.43054626 11.04292297 65.08688354 C20.00562575 60.85674726 29.31901581 57.50012649 38.62109375 54.10546875 C40.43325781 53.43705157 42.24510859 52.76778444 44.05664062 52.09765625 C46.59630587 51.15838195 49.1363281 50.22028579 51.67887878 49.28884888 C52.42768814 49.01451019 53.1764975 48.74017151 53.94799805 48.45751953 C54.64347748 48.20311096 55.33895691 47.94870239 56.05551147 47.68658447 C57.64742401 47.08806199 59.22044662 46.43966699 60.78833008 45.78076172 C62.93359375 44.98046875 62.93359375 44.98046875 65.93359375 44.98046875 C65.93359375 44.32046875 65.93359375 43.66046875 65.93359375 42.98046875 C43.02166747 39.67359279 17.96870837 37.90184142 -4.06640625 45.98046875 C-5.39831811 46.43914892 -6.73034689 46.89748971 -8.0625 47.35546875 C-13.98917664 49.00233488 -13.98917664 49.00233488 -18.06640625 52.98046875 C-18.4227579 59.62635576 -17.38018188 65.75537947 -16.1328125 72.26953125 C-15.8367234 73.86261612 -15.8367234 73.86261612 -15.53465271 75.48788452 C-14.90612033 78.86170955 -14.26776162 82.2335848 -13.62890625 85.60546875 C-13.20310564 87.87878078 -12.77796876 90.15221724 -12.35351562 92.42578125 C-11.75536949 95.62933699 -11.15628131 98.83268005 -10.55189514 102.0350647 C-7.88660423 116.1633643 -7.88660423 116.1633643 -7.69140625 123.16796875 C-7.61792969 124.98361328 -7.61792969 124.98361328 -7.54296875 126.8359375 C-8.06640625 129.98046875 -8.06640625 129.98046875 -9.9140625 131.73828125 C-14.47331136 133.53486258 -19.09913899 134.61813268 -23.87890625 135.66796875 C-25.3184668 136.00538086 -25.3184668 136.00538086 -26.78710938 136.34960938 C-36.09645774 138.44024119 -43.8064826 138.09989528 -53.12890625 136.16796875 C-53.98806641 136.00232422 -54.84722656 135.83667969 -55.73242188 135.66601562 C-60.83499672 134.63302683 -65.44596386 133.41647888 -70.06640625 130.98046875 C-73.51616485 120.63119295 -69.27288808 106.14427078 -67.25390625 95.60546875 C-66.98365253 94.1538313 -66.71396398 92.70208853 -66.44482422 91.25024414 C-64.76975767 82.29158211 -62.92233362 73.38671215 -60.73046875 64.5390625 C-59.96824754 60.45445355 -59.74436907 57.12778541 -60.06640625 52.98046875 C-62.21365438 50.11574758 -64.53059152 49.26721359 -67.890625 48.2265625 C-68.83744141 47.92943359 -69.78425781 47.63230469 -70.75976562 47.32617188 C-72.24186523 46.87661133 -72.24186523 46.87661133 -73.75390625 46.41796875 C-74.72263672 46.11439453 -75.69136719 45.81082031 -76.68945312 45.49804688 C-79.47483216 44.6336189 -82.26902513 43.80505336 -85.06640625 42.98046875 C-85.72374756 42.76567871 -86.38108887 42.55088867 -87.05834961 42.32958984 C-93.64834406 40.35320748 -100.43392554 40.6823984 -107.25390625 40.73046875 C-108.57277832 40.73433594 -109.89165039 40.73820312 -111.25048828 40.7421875 C-122.27016232 40.81638731 -133.13526191 41.62915731 -144.06640625 42.98046875 C-142.3894986 46.33428406 -138.55637577 46.82763431 -135.18359375 48.02734375 C-134.37713409 48.32102844 -133.57067444 48.61471313 -132.73977661 48.91729736 C-130.14272352 49.86181096 -127.54230114 50.796592 -124.94140625 51.73046875 C-121.56253804 52.95095534 -118.185121 54.1753964 -114.80859375 55.40234375 C-113.98162994 55.70269531 -113.15466614 56.00304687 -112.30264282 56.3125 C-80.85661554 67.79075609 -80.85661554 67.79075609 -76.06640625 75.98046875 C-73.39677048 88.31374475 -82.05829253 99.94577564 -88.06640625 109.98046875 C-89.39862636 112.23978941 -90.71133552 114.51073275 -92.00390625 116.79296875 C-92.59042969 117.81003906 -93.17695313 118.82710937 -93.78125 119.875 C-95.30184452 123.54938492 -95.54009992 126.03915344 -95.06640625 129.98046875 C-90.28386195 137.30810972 -80.09233219 141.77628332 -72.72265625 146.1796875 C-49.21782966 160.2426953 -49.21782966 160.2426953 -45.06640625 166.98046875 C-44.56661676 170.55039369 -44.69536563 172.35088386 -46.53515625 175.47265625 C-48.68895023 177.99922226 -50.84234436 180.51524352 -53.06640625 182.98046875 C-53.70191406 183.686875 -54.33742187 184.39328125 -54.9921875 185.12109375 C-60.12799673 190.52273161 -65.94784969 194.75805023 -72.06640625 198.98046875 C-72.83082031 199.52832031 -73.59523438 200.07617188 -74.3828125 200.640625 C-79.97158871 204.549769 -85.80272042 207.3177683 -92.06640625 209.98046875 C-93.07316406 210.43808594 -94.07992187 210.89570313 -95.1171875 211.3671875 C-108.51275278 217.30753348 -108.51275278 217.30753348 -115.1171875 215.3828125 C-125.51946799 210.71693523 -133.91339753 201.1566875 -138.00390625 190.60546875 C-141.43811197 178.10756818 -137.74170488 165.33106602 -132.06640625 153.98046875 C-131.33774576 150.06391863 -131.29203536 146.52628838 -133.1015625 142.9140625 C-137.54631977 136.9233027 -143.14152337 131.75899666 -148.47094727 126.56005859 C-152.26151565 122.85677141 -155.82104381 119.04099211 -159.28027344 115.02709961 C-162.40653702 111.44488698 -165.67797365 107.9998482 -168.94140625 104.54296875 C-169.64104492 103.79724609 -170.34068359 103.05152344 -171.06152344 102.28320312 C-174.71912897 98.40007069 -178.43395906 94.63719227 -182.31640625 90.98046875 C-187.79531592 85.50155908 -190.18541437 80.08253329 -190.81640625 72.35546875 C-190.41501355 60.70021411 -181.77266903 49.98636562 -175.06640625 40.98046875 C-173.97557071 39.48640069 -172.88583513 37.99152926 -171.796875 36.49609375 C-160.65606292 21.23563552 -160.65606292 21.23563552 -155.19921875 14.59765625 C-153.38868988 12.37594499 -151.62564761 10.12902839 -149.87109375 7.86328125 C-148.70724044 6.3813461 -147.543177 4.89957596 -146.37890625 3.41796875 C-145.55797485 2.34349487 -145.55797485 2.34349487 -144.72045898 1.24731445 C-144.19137939 0.58046631 -143.6622998 -0.08638184 -143.1171875 -0.7734375 C-142.64966064 -1.37486572 -142.18213379 -1.97629395 -141.70043945 -2.59594727 C-139.4193819 -4.58322451 -138.10636656 -4.80173234 -135.06640625 -5.01953125 C-131.9025631 -4.71262475 -128.79767009 -4.1560529 -125.671875 -3.5859375 C-124.76568924 -3.42915024 -123.85950348 -3.27236298 -122.92585754 -3.11082458 C-120.03364212 -2.60974195 -117.14367833 -2.09700438 -114.25390625 -1.58203125 C-111.37473132 -1.07141608 -108.49518957 -0.56359685 -105.61408997 -0.06394958 C-103.82426812 0.24662936 -102.03551423 0.56345054 -100.24809265 0.88755798 C-92.23595016 2.28142317 -85.71268034 2.53823472 -77.85546875 -0.13671875 C-77.20242767 -0.35393585 -76.5493866 -0.57115295 -75.8765564 -0.79495239 C-73.81087068 -1.48361708 -71.75098152 -2.18782374 -69.69140625 -2.89453125 C-43.18758529 -11.89831156 -26.14308069 -9.0058104 0 0 Z " fill="#FEFDFC" transform="translate(289.06640625,100.01953125)"/>
<path d="M0 0 C1.96798315 1.15911939 3.92830731 2.33139018 5.87890625 3.51953125 C9.38179844 5.55621285 13.02218359 7.19193963 16.75 8.7734375 C18.61328125 10.109375 18.61328125 10.109375 19.51171875 12.6015625 C19.61328125 15.109375 19.61328125 15.109375 17.55078125 17.609375 C14.58843917 20.1305172 11.60328201 22.62116355 8.61328125 25.109375 C9.44449871 25.11084156 10.27571617 25.11230812 11.13212204 25.11381912 C31.34570417 25.1508504 51.55911814 25.20981613 71.77256393 25.29327774 C81.54759756 25.33310853 91.3225502 25.36548046 101.09765625 25.38037109 C109.61639302 25.39336671 118.13495192 25.42027772 126.65358853 25.46398807 C131.1653188 25.48665007 135.67682929 25.50228285 140.18862152 25.50125885 C144.43389076 25.50051502 148.67867332 25.51835347 152.92381668 25.55054283 C154.48306942 25.55907272 156.04237657 25.56077087 157.60164261 25.55517769 C159.72903957 25.54856213 161.85487687 25.56639595 163.9821167 25.59039307 C165.17307323 25.59408024 166.36402977 25.59776741 167.5910759 25.60156631 C171.22211445 26.21167473 172.36660939 27.25673248 174.61328125 30.109375 C176.31507567 33.51296384 175.78823038 37.39949933 175.80615234 41.14550781 C175.81432983 42.08225845 175.82250732 43.01900909 175.83093262 43.98414612 C175.85580652 47.09359086 175.8723082 50.20298987 175.88671875 53.3125 C175.89204243 54.37333549 175.8973661 55.43417099 175.9028511 56.52715302 C175.92959199 62.14260639 175.94896347 67.75803745 175.96337891 73.37353516 C175.98002456 79.17545864 176.02479939 84.97681385 176.07575035 90.77852249 C176.1093995 95.23779964 176.12095385 99.69694158 176.12660599 104.15633392 C176.1333254 106.29497366 176.14856528 108.43360428 176.1724968 110.57212067 C176.20409902 113.5671065 176.20419221 116.56055542 176.19677734 119.55566406 C176.21318268 120.43797195 176.22958801 121.32027985 176.24649048 122.22932434 C176.23401276 123.46162025 176.23401276 123.46162025 176.22128296 124.71881104 C176.22624818 125.77958548 176.22624818 125.77958548 176.23131371 126.8617897 C175.2587599 130.39865513 173.51040937 132.93049253 170.61328125 135.109375 C167.6360491 135.97091069 164.77694252 135.9205212 161.69360352 135.87127686 C160.7944777 135.8806368 159.89535189 135.88999674 158.96897984 135.89964032 C155.95528267 135.92357862 152.94339823 135.90461493 149.9296875 135.88574219 C147.76959165 135.89387206 145.60950412 135.90455495 143.44943237 135.91760254 C137.58160428 135.94498085 131.71440836 135.93433992 125.84656906 135.91532803 C119.70962555 135.90015108 113.57273663 135.9142215 107.43579102 135.92364502 C97.12929553 135.93456493 86.82305791 135.92016456 76.51660156 135.89160156 C64.59612521 135.85894729 52.67626454 135.86952399 40.75580311 135.90256 C30.5263558 135.92977631 20.29709399 135.93363573 10.06762218 135.91792798 C3.95571486 135.90856743 -2.15590295 135.90734429 -8.26779175 135.92714691 C-14.01359798 135.94446259 -19.75860943 135.93248754 -25.50432968 135.89778137 C-27.61467035 135.88983876 -29.72507776 135.89214196 -31.835392 135.90535736 C-34.71351518 135.92172108 -37.58908145 135.90123656 -40.46704102 135.87127686 C-41.30507483 135.88466119 -42.14310865 135.89804552 -43.00653744 135.91183543 C-48.49000037 135.80087471 -48.49000037 135.80087471 -51.02768153 133.8439551 C-54.5042109 129.905761 -54.96195578 126.99084633 -54.79223633 121.84155273 C-54.77701935 121.13979416 -54.76180237 120.43803558 -54.74612427 119.7150116 C-54.71161905 118.19901802 -54.66639444 116.6832378 -54.61152077 115.16784477 C-54.53001321 112.75637732 -54.48984076 110.3474832 -54.46208191 107.93482971 C-54.38051585 101.07999974 -54.26317057 94.22811725 -54.02709961 87.37670898 C-52.32310957 67.64481618 -52.32310957 67.64481618 -58.82006836 50.02978516 C-62.04635693 47.08375369 -65.49187371 44.95945623 -69.42700195 43.08798218 C-72.37590585 41.61541302 -74.75474521 39.66681577 -77.32421875 37.609375 C-78.77715549 36.5316472 -80.23011551 35.45395053 -81.68359375 34.37695312 C-85.24632516 31.72533307 -88.78667523 29.04445755 -92.32421875 26.359375 C-93.04665771 25.81603516 -93.76909668 25.27269531 -94.51342773 24.71289062 C-96.49524093 23.20585064 -98.44954063 21.673278 -100.38671875 20.109375 C-100.93086426 19.67173828 -101.47500977 19.23410156 -102.03564453 18.78320312 C-103.453125 17.53125 -103.453125 17.53125 -105.38671875 15.109375 C-105.3203125 12.64868164 -105.3203125 12.64868164 -104.38671875 10.109375 C-102.23217773 8.4753418 -102.23217773 8.4753418 -99.3828125 7.05859375 C-98.33996094 6.52886963 -97.29710937 5.99914551 -96.22265625 5.45336914 C-95.10117188 4.90672607 -93.9796875 4.36008301 -92.82421875 3.796875 C-91.68339844 3.22509521 -90.54257813 2.65331543 -89.3671875 2.06420898 C-87.08407026 0.92152043 -84.79748565 -0.21426907 -82.50732422 -1.34277344 C-79.90805483 -2.63203708 -77.33152879 -3.95076877 -74.765625 -5.3046875 C-46.20434246 -20.30346698 -27.46083023 -15.32992137 0 0 Z " fill="#F2F2F1" transform="translate(292.38671875,323.890625)"/>
<path d="M0 0 C7.81519331 -0.06974839 15.63031263 -0.12293663 23.44573975 -0.15543652 C27.07542985 -0.17104099 30.70490578 -0.19218257 34.33447266 -0.22631836 C37.84229617 -0.25909979 41.34991468 -0.27689219 44.85787964 -0.28463173 C46.8363929 -0.29280918 48.81482458 -0.31619824 50.79321289 -0.33988953 C65.14707145 -0.34255405 65.14707145 -0.34255405 70.51074219 4.31062317 C76.014347 10.36940214 76.29638109 16.81456002 76.2746582 24.55029297 C76.27976913 25.4941687 76.28488007 26.43804443 76.29014587 27.41052246 C76.30401072 30.52114254 76.30308734 33.63154025 76.30078125 36.7421875 C76.30467004 38.9116321 76.30900509 41.08107594 76.31376648 43.2505188 C76.32122213 47.79480458 76.32094225 52.33901266 76.31567383 56.88330078 C76.30988187 62.69598506 76.32680696 68.50835041 76.3500185 74.32098198 C76.36477751 78.80093229 76.36562455 83.2808062 76.36250877 87.76077652 C76.36302095 89.90330766 76.36823919 92.04584319 76.37832069 94.18835068 C76.39070883 97.18941489 76.38387881 100.18986301 76.37231445 103.19091797 C76.37995819 104.06910187 76.38760193 104.94728577 76.39547729 105.8520813 C76.33667891 112.78379009 75.1454403 118.33269584 70.6875 123.875 C65.55144197 127.93606914 60.3436873 128.29124747 53.9894104 128.24050903 C52.8056575 128.24307231 52.8056575 128.24307231 51.59799039 128.24568737 C48.96318271 128.24897214 46.32863174 128.23799533 43.69384766 128.22705078 C41.80136115 128.22648645 39.9088742 128.22680366 38.01638794 128.22793579 C32.88463707 128.22850944 27.75297976 128.21675306 22.62125063 128.20278788 C17.25608069 128.19028263 11.89090859 128.18911018 6.52572632 128.18673706 C-3.63139396 128.1805217 -13.78847118 128.16411008 -23.9455725 128.14403808 C-35.51017724 128.12168087 -47.07478404 128.11068609 -58.63940501 128.10064721 C-82.42629388 128.07974393 -106.21314453 128.04456681 -130 128 C-128.92421944 127.15495344 -128.92421944 127.15495344 -127.82670593 126.29283524 C-126.00147474 124.81232949 -124.21971043 123.27577619 -122.49714661 121.67698288 C-113.85250702 114.18126856 -106.63495172 113.74659888 -95.63671875 113.96582031 C-93.91732028 113.96668371 -92.1979158 113.9635025 -90.47853088 113.95661926 C-86.79978859 113.95034114 -83.12269466 113.97201692 -79.44421387 114.01605988 C-73.62827461 114.08528665 -67.81335412 114.08958756 -61.99707031 114.08538818 C-52.80438445 114.08615319 -43.61245242 114.12829671 -34.41998482 114.18915534 C-17.93647365 114.29825747 -1.45295249 114.36406436 15.03092289 114.37344241 C20.81400244 114.37873937 26.59610941 114.4112281 32.37893009 114.46540785 C35.96824622 114.49455524 39.55741359 114.50350719 43.14683723 114.50729942 C44.81260767 114.51343606 46.47837173 114.52824077 48.14398003 114.55227852 C50.41526984 114.58398639 52.68459996 114.58509451 54.95605469 114.57867432 C56.22729187 114.5875983 57.49852905 114.59652229 58.80828857 114.60571671 C62.14798884 114.2683922 62.14798884 114.2683922 64.40976238 111.72988605 C65.9721092 109.04787882 66.49803313 107.781561 66.48774719 104.7431488 C66.49816292 103.51725037 66.49816292 103.51725037 66.50878906 102.2665863 C66.48957397 100.94244469 66.48957397 100.94244469 66.4699707 99.59155273 C66.4721611 98.65115143 66.4743515 97.71075012 66.47660828 96.74185181 C66.47891654 93.63873931 66.4526791 90.5365795 66.42578125 87.43359375 C66.42085684 85.27556153 66.41755829 83.11752505 66.41581726 80.95948792 C66.40817954 76.43940566 66.38762495 71.9196403 66.35668945 67.3996582 C66.31709127 61.60346114 66.29907621 55.80747013 66.28938007 50.01115322 C66.27940915 44.48527212 66.25952223 38.95944134 66.23828125 33.43359375 C66.2348855 32.3777603 66.23148975 31.32192684 66.2279911 30.23409843 C66.21641955 27.24902226 66.1978992 24.26407644 66.17700195 21.27905273 C66.17431305 20.39426743 66.17162415 19.50948212 66.16885376 18.59788513 C66.1581208 17.37621643 66.1581208 17.37621643 66.14717102 16.12986755 C66.1407608 15.07217242 66.1407608 15.07217242 66.13422108 13.9931097 C65.98885225 11.83446193 65.76327644 10.03042839 65 8 C61.721216 6.907072 59.23715589 6.84216128 55.78442383 6.79467773 C54.5033223 6.77473251 53.22222076 6.75478729 51.90229797 6.73423767 C50.50387696 6.7172546 49.10545469 6.70037575 47.70703125 6.68359375 C46.2764171 6.66301834 44.84580895 6.64202171 43.41520691 6.62062073 C39.65219994 6.56546067 35.88913865 6.51602471 32.1260376 6.46777344 C28.28514784 6.41751407 24.44433684 6.36185117 20.60351562 6.30664062 C13.06907713 6.19913327 5.53457309 6.09767189 -2 6 C-1.34 4.02 -0.68 2.04 0 0 Z " fill="#000000" transform="translate(401,344)"/>
<path d="M0 0 C2.97 0 5.94 0 9 0 C9.33 7.59 9.66 15.18 10 23 C11.65 21.35 13.3 19.7 15 18 C19.55770098 15.06281492 23.65853916 14.14380956 29 15 C36.61070568 17.17079551 40.88561395 21.24815325 45.13671875 27.734375 C47.40017122 33.67465751 46.90449195 42.5567636 45.3125 48.6171875 C42.75052685 54.10407999 38.70446338 58.61632106 33.3125 61.375 C27.02867515 62.56062733 21.28787916 63.18479457 15.5 60.1875 C11.58823529 56.76470588 11.58823529 56.76470588 10 55 C9.67 56.98 9.34 58.96 9 61 C6.03 61 3.06 61 0 61 C0 40.87 0 20.74 0 0 Z " fill="#323232" transform="translate(265,371)"/>
<path d="M0 0 C2.5 2.6875 2.5 2.6875 4 5 C4.33 2.69 4.66 0.38 5 -2 C7.97 -2 10.94 -2 14 -2 C14 12.85 14 27.7 14 43 C11.03 43 8.06 43 5 43 C5 40.69 5 38.38 5 36 C4.34 36 3.68 36 3 36 C2.7421875 36.61359375 2.484375 37.2271875 2.21875 37.859375 C0.13257663 41.5235513 -3.09293247 42.72581491 -7 44 C-12.66629545 44.88397745 -17.57479357 44.56428921 -22.40625 41.328125 C-28.10799751 36.57666874 -32.30892954 30.98338586 -33.3515625 23.46484375 C-33.73483871 16.29354418 -32.11358108 10.88685413 -28 5 C-20.33174308 -3.43682936 -10.15998507 -5.75432783 0 0 Z " fill="#333333" transform="translate(432,389)"/>
<path d="M0 0 C4.81230907 2.93503206 7.08940101 6.3976996 9.97265625 11.203125 C9.97265625 15.493125 9.97265625 19.783125 9.97265625 24.203125 C-1.24734375 24.203125 -12.46734375 24.203125 -24.02734375 24.203125 C-21.9409995 30.89816596 -21.9409995 30.89816596 -17.02734375 35.203125 C-11.84618527 35.94878134 -6.51419716 36.22488342 -2.02734375 33.203125 C-1.69734375 32.213125 -1.36734375 31.223125 -1.02734375 30.203125 C2.27265625 30.203125 5.57265625 30.203125 8.97265625 30.203125 C7.01396775 35.91596645 4.44406133 39.70220185 -0.96484375 42.515625 C-7.31328037 45.0864795 -14.61469327 45.54197227 -21.203125 43.54296875 C-26.715325 40.7196468 -31.83227394 35.0165519 -34.02734375 29.203125 C-34.79062793 21.00225778 -35.53243938 11.91831904 -30.02734375 5.203125 C-21.35389072 -3.47032803 -10.92272964 -5.47099685 0 0 Z " fill="#343434" transform="translate(352.02734375,388.796875)"/>
<path d="M0 0 C3.3 0 6.6 0 10 0 C10 3.96 10 7.92 10 12 C13.63 12 17.26 12 21 12 C21 14.64 21 17.28 21 20 C17.37 20 13.74 20 10 20 C10.33 29.24 10.66 38.48 11 48 C14.3 48.33 17.6 48.66 21 49 C21 51.64 21 54.28 21 57 C18.77191841 57.10853983 16.54230068 57.18583307 14.3125 57.25 C13.07113281 57.29640625 11.82976562 57.3428125 10.55078125 57.390625 C6.38504731 56.93234844 4.88867646 55.97715845 2 53 C-0.31028541 49.46502733 -0.23181028 46.42637147 -0.1953125 42.265625 C-0.18564453 40.32236328 -0.18564453 40.32236328 -0.17578125 38.33984375 C-0.15907193 36.97655981 -0.14214206 35.61327856 -0.125 34.25 C-0.1149634 32.87110015 -0.10583873 31.49219335 -0.09765625 30.11328125 C-0.07408093 26.74201118 -0.0411727 23.37109364 0 20 C-1.65 20 -3.3 20 -5 20 C-5 17.36 -5 14.72 -5 12 C-3.35 12 -1.7 12 0 12 C0 8.04 0 4.08 0 0 Z " fill="#393939" transform="translate(373,375)"/>
<path d="M0 0 C4.79678945 2.39839473 7.63683712 5.18278335 10 10 C10.95355243 15.87131161 10.06473215 20.85915897 7 26 C4.23271406 29.10550978 1.69640273 30.84914984 -2.50390625 31.22265625 C-7.74759138 30.90225224 -11.34084296 30.00220302 -15 26 C-18.23624107 20.89316568 -17.58521081 14.80875914 -17 9 C-13.57635381 1.64550077 -8.08789208 -1.41418938 0 0 Z " fill="#EDEDED" transform="translate(292,394)"/>
<path d="M0 0 C5.94949014 4.92957754 5.94949014 4.92957754 6.5390625 9.59375 C6.73718147 16.87011947 5.98879151 21.58677038 1.125 27.1875 C-3.19666735 29.5782096 -6.99053669 29.8189534 -11.8125 28.8125 C-16.02257442 26.4221647 -19.03681267 23.34299197 -20.8125 18.8125 C-21.4967501 13.54536554 -21.44655953 9.12758642 -19.125 4.3125 C-13.70763894 -1.54410656 -7.48356495 -3.15972742 0 0 Z " fill="#EEEEEE" transform="translate(429.8125,396.1875)"/>
<path d="M0 0 C4.875 2.875 4.875 2.875 6 4 C6.10309747 6.27387125 6.13574076 8.55094935 6.1418457 10.82714844 C6.14532013 11.54102722 6.14879456 12.25490601 6.15237427 12.99041748 C6.15974432 14.54607102 6.16508302 16.10173517 6.16866493 17.65740204 C6.17581355 20.12050463 6.19146888 22.58340603 6.21000671 25.04644775 C6.26254443 32.05144446 6.31043952 39.05633407 6.32592773 46.06152344 C6.33601442 50.34227656 6.36536 54.62252867 6.40724754 58.9030838 C6.41955716 60.53448953 6.42467886 62.16596605 6.42244911 63.79741669 C6.42009375 66.08391135 6.44227907 68.36897263 6.4699707 70.65527344 C6.47583694 71.95575623 6.48170319 73.25623901 6.48774719 74.59613037 C7.08956047 78.59512054 8.04369958 80.2683833 11 83 C13.19254518 83.74793745 13.19254518 83.74793745 15.58496094 83.65942383 C16.48559265 83.67906693 17.38622437 83.69871002 18.31414795 83.71894836 C19.75966034 83.71304939 19.75966034 83.71304939 21.234375 83.70703125 C22.72411835 83.72971321 22.72411835 83.72971321 24.24395752 83.75285339 C27.41286794 83.79580577 30.5808272 83.80457587 33.75 83.8125 C35.899765 83.83563837 38.04950729 83.86100232 40.19921875 83.88867188 C45.46615477 83.9515982 50.73271798 83.98647282 56 84 C52.58710511 87.49337583 49.35455691 90.25201925 45.1875 92.8125 C44.21167969 93.41707031 43.23585938 94.02164063 42.23046875 94.64453125 C41.49441406 95.09183594 40.75835937 95.53914063 40 96 C40.66 94.68 41.32 93.36 42 92 C42.66 92 43.32 92 44 92 C43.67 90.68 43.34 89.36 43 88 C42.00871094 88.15339844 41.01742187 88.30679688 39.99609375 88.46484375 C36.02803017 89.03170998 32.06358009 89.31464548 28.0625 89.5625 C27.03672852 89.62727539 27.03672852 89.62727539 25.99023438 89.69335938 C24.32697635 89.79803995 22.66350837 89.89937594 21 90 C21 89.34 21 88.68 21 88 C20.154375 88.0825 19.30875 88.165 18.4375 88.25 C13.96365938 87.92462977 11.75106048 86.40067871 8 84 C8 83.34 8 82.68 8 82 C7.01 81.67 6.02 81.34 5 81 C5 57.24 5 33.48 5 9 C4.34 9 3.68 9 3 9 C2.01 6.03 1.02 3.06 0 0 Z " fill="#D42901" transform="translate(232,375)"/>
<path d="M0 0 C3.35452391 2.23634927 4.92936948 4.32602325 6.8125 7.875 C6.8125 9.195 6.8125 10.515 6.8125 11.875 C-1.7675 11.875 -10.3475 11.875 -19.1875 11.875 C-18.11998912 6.53744558 -17.19386178 3.49123588 -12.9375 0.0625 C-8.3154061 -1.93340418 -4.70023542 -1.65890662 0 0 Z " fill="#E2E2E2" transform="translate(346.1875,395.125)"/>
<path d="M0 0 C8.18060296 6.7578894 15.59416494 14.22242452 22.49609375 22.27734375 C23.7330167 23.69418276 25.04507309 25.04507309 26.375 26.375 C28.72514777 28.72514777 30.92072156 31.13932431 33.125 33.625 C37.39783674 38.42031092 41.8982598 42.90481609 46.51953125 47.359375 C50.23232664 51.31189418 52.75297932 54.46847177 53.625 59.875 C53.34702699 67.21601456 49.76230316 74.2997706 47 81 C46.67 81 46.34 81 46 81 C46.08754551 79.24908981 46.19573373 77.49920449 46.3125 75.75 C46.39951172 74.28820312 46.39951172 74.28820312 46.48828125 72.796875 C47.05798389 69.68308043 48.0692609 68.44297601 50 66 C50.77314488 63.65744063 50.77314488 63.65744063 51.1875 61.25 C51.34605469 60.45078125 51.50460938 59.6515625 51.66796875 58.828125 C51.77753906 58.22484375 51.88710937 57.6215625 52 57 C51.34 57 50.68 57 50 57 C49.34 56.34 48.68 55.68 48 55 C48 53.68 48 52.36 48 51 C46.68 51 45.36 51 44 51 C44 49.68 44 48.36 44 47 C43.4225 46.9175 42.845 46.835 42.25 46.75 C39.32205399 45.774018 37.94755463 44.36488777 36 42 C36 41.01 36 40.02 36 39 C35.360625 38.896875 34.72125 38.79375 34.0625 38.6875 C33.381875 38.460625 32.70125 38.23375 32 38 C31.67 37.01 31.34 36.02 31 35 C29.68 35 28.36 35 27 35 C26.731875 34.071875 26.46375 33.14375 26.1875 32.1875 C25.06289965 29.1688359 24.29293427 28.0844857 22 26 C22 25.34 22 24.68 22 24 C21.34 24 20.68 24 20 24 C18.34375 22.390625 18.34375 22.390625 16.5 20.25 C15.8915625 19.55390625 15.283125 18.8578125 14.65625 18.140625 C13 16 13 16 12.03125 13.859375 C10.71350057 11.48343284 9.42243541 11.14841382 7 10 C5.078125 8.125 5.078125 8.125 3.25 6 C2.63640625 5.29875 2.0228125 4.5975 1.390625 3.875 C0 2 0 2 0 0 Z " fill="#E76721" transform="translate(105,189)"/>
<path d="M0 0 C4.875 2.875 4.875 2.875 6 4 C6.10309747 6.27387125 6.13574076 8.55094935 6.1418457 10.82714844 C6.14532013 11.54102722 6.14879456 12.25490601 6.15237427 12.99041748 C6.15974432 14.54607102 6.16508302 16.10173517 6.16866493 17.65740204 C6.17581355 20.12050463 6.19146888 22.58340603 6.21000671 25.04644775 C6.26254443 32.05144446 6.31043952 39.05633407 6.32592773 46.06152344 C6.33601442 50.34227656 6.36536 54.62252867 6.40724754 58.9030838 C6.41955716 60.53448953 6.42467886 62.16596605 6.42244911 63.79741669 C6.42009375 66.08391135 6.44227907 68.36897263 6.4699707 70.65527344 C6.47583694 71.95575623 6.48170319 73.25623901 6.48774719 74.59613037 C7.08956047 78.59512054 8.04369958 80.2683833 11 83 C13.19254518 83.74793745 13.19254518 83.74793745 15.58496094 83.65942383 C16.48559265 83.67906693 17.38622437 83.69871002 18.31414795 83.71894836 C19.75966034 83.71304939 19.75966034 83.71304939 21.234375 83.70703125 C22.72411835 83.72971321 22.72411835 83.72971321 24.24395752 83.75285339 C27.41286794 83.79580577 30.5808272 83.80457587 33.75 83.8125 C35.899765 83.83563837 38.04950729 83.86100232 40.19921875 83.88867188 C45.46615477 83.9515982 50.73271798 83.98647282 56 84 C54 86 54 86 52.05111694 86.20254517 C51.256138 86.18033905 50.46115906 86.15813293 49.64208984 86.13525391 C48.74130707 86.11508209 47.84052429 86.09491028 46.91244507 86.0741272 C45.93844757 86.04193085 44.96445007 86.0097345 43.9609375 85.9765625 C42.96494537 85.95153656 41.96895325 85.92651062 40.94277954 85.90072632 C37.75318105 85.81837761 34.56418811 85.72184546 31.375 85.625 C29.21617079 85.56677566 27.05731653 85.50947207 24.8984375 85.453125 C19.59862118 85.31277691 14.29923388 85.16077367 9 85 C8.67 84.01 8.34 83.02 8 82 C7.01 81.67 6.02 81.34 5 81 C5 57.24 5 33.48 5 9 C4.34 9 3.68 9 3 9 C2.01 6.03 1.02 3.06 0 0 Z " fill="#B43911" transform="translate(232,375)"/>
<path d="M0 0 C0.66 0.33 1.32 0.66 2 1 C0.68 2.65 -0.64 4.3 -2 6 C-1.14019531 5.97679688 -0.28039062 5.95359375 0.60546875 5.9296875 C14.7102893 5.71434673 27.99549854 6.99699903 40 15 C36.43395281 16.1886824 36.11351056 15.80719323 32.875 14.25 C19.92046684 8.81322053 4.84803599 8.292078 -9 7 C-3.24149259 1.11775606 -3.24149259 1.11775606 0 0 Z " fill="#FD4B12" transform="translate(96,65)"/>
<path d="M0 0 C1.32 0 2.64 0 4 0 C4 1.65 4 3.3 4 5 C5.258125 4.938125 6.51625 4.87625 7.8125 4.8125 C9.95703125 4.70703125 9.95703125 4.70703125 12 5 C13.62768555 6.51831055 13.62768555 6.51831055 15 8 C14.17761841 7.80700317 14.17761841 7.80700317 13.33862305 7.61010742 C3.02338617 5.04022601 3.02338617 5.04022601 -6.94628906 7.08447266 C-10.24016092 10.00231843 -12.59910374 13.51712089 -14.87841797 17.25390625 C-16.6748716 20.05064903 -18.82852328 22.4876742 -21 25 C-21.66 24.34 -22.32 23.68 -23 23 C-21.38405168 20.95880212 -19.7143618 18.95927063 -18 17 C-17.34 17 -16.68 17 -16 17 C-15.938125 16.21625 -15.87625 15.4325 -15.8125 14.625 C-15.544375 13.75875 -15.27625 12.8925 -15 12 C-12.4375 10.6875 -12.4375 10.6875 -10 10 C-10 9.01 -10 8.02 -10 7 C-9.34 6.67 -8.68 6.34 -8 6 C-7.34444881 3.47266765 -7.34444881 3.47266765 -7 1 C-6.67 1.66 -6.34 2.32 -6 3 C-4.35 3 -2.7 3 -1 3 C-0.67 2.01 -0.34 1.02 0 0 Z " fill="#EF4C38" transform="translate(155,90)"/>
<path d="M0 0 C0.66 0.33 1.32 0.66 2 1 C1.67 1.66 1.34 2.32 1 3 C32.35 3 63.7 3 96 3 C96 3.33 96 3.66 96 4 C63 4 30 4 -4 4 C-2.68 2.68 -1.36 1.36 0 0 Z " fill="#CF2C16" transform="translate(303,346)"/>
<path d="M0 0 C0 0.66 0 1.32 0 2 C0.66 2 1.32 2 2 2 C2.495 4.475 2.495 4.475 3 7 C1.98679687 5.74703125 1.98679687 5.74703125 0.953125 4.46875 C-1.79318174 1.66669975 -1.79318174 1.66669975 -5.390625 1.84375 C-6.66421875 2.0603125 -7.9378125 2.276875 -9.25 2.5 C-9.9394873 2.60876465 -10.62897461 2.7175293 -11.33935547 2.82958984 C-13.56602367 3.1890857 -15.78203787 3.59039787 -18 4 C-20.30017414 4.40980673 -22.60073197 4.81739989 -24.90136719 5.22460938 C-26.34895709 5.48526456 -27.79505927 5.75436941 -29.23925781 6.03320312 C-33.21758413 6.78383073 -36.95299066 7.13868256 -41 7 C-40.67 6.34 -40.34 5.68 -40 5 C-37.99047852 4.51342773 -37.99047852 4.51342773 -35.37890625 4.18359375 C-34.44369141 4.05919922 -33.50847656 3.93480469 -32.54492188 3.80664062 C-31.56072266 3.68482422 -30.57652344 3.56300781 -29.5625 3.4375 C-27.6259123 3.18921953 -25.68969126 2.93805689 -23.75390625 2.68359375 C-22.45948608 2.52201782 -22.45948608 2.52201782 -21.13891602 2.35717773 C-18.95567788 2.1002494 -18.95567788 2.1002494 -17 1 C-15.45976004 0.93049459 -13.91665012 0.91547643 -12.375 0.9375 C-11.14910156 0.95103516 -11.14910156 0.95103516 -9.8984375 0.96484375 C-8.95871094 0.98224609 -8.95871094 0.98224609 -8 1 C-8 0.34 -8 -0.32 -8 -1 C-4.59745511 -2.2151946 -3.06748874 -1.86240388 0 0 Z " fill="#E3452B" transform="translate(352,94)"/>
<path d="M0 0 C-1.0027544 2.64815804 -1.62699768 3.79133691 -4.13671875 5.1953125 C-6.75234145 6.14863287 -9.36613673 7.09810137 -12 8 C-13.134375 8.4125 -14.26875 8.825 -15.4375 9.25 C-22.40520312 10.71688487 -29.3741472 10.86523364 -36 8 C-36 7.34 -36 6.68 -36 6 C-36.66 6 -37.32 6 -38 6 C-38 5.34 -38 4.68 -38 4 C-38.66 4 -39.32 4 -40 4 C-39.67 3.34 -39.34 2.68 -39 2 C-38.52691406 2.34933594 -38.05382812 2.69867188 -37.56640625 3.05859375 C-32.51802845 6.53242877 -28.21240799 8.52188242 -22 8 C-15.65664004 6.34760522 -9.695003 3.51663794 -3.77734375 0.734375 C-2 0 -2 0 0 0 Z " fill="#EC651E" transform="translate(204,307)"/>
<path d="M0 0 C2.97 0.495 2.97 0.495 6 1 C6 1.66 6 2.32 6 3 C6.66 3 7.32 3 8 3 C8 4.32 8 5.64 8 7 C8.66 7 9.32 7 10 7 C10.22142255 8.95689659 10.4267568 10.91561952 10.625 12.875 C10.74101562 13.96554688 10.85703125 15.05609375 10.9765625 16.1796875 C10.98429688 17.11039063 10.99203125 18.04109375 11 19 C10.34 19.66 9.68 20.32 9 21 C8.24927581 22.69728946 7.50224272 24.39664655 6.796875 26.11328125 C5.65908314 28.8071708 4.33258448 31.39828744 3 34 C2.34 34 1.68 34 1 34 C1.89008143 31.18140881 2.80926994 28.42368281 4.0234375 25.7265625 C6.64052586 19.84275393 8.32468555 14.45645056 7 8 C5.58472114 5.47234329 4.1400446 4.03813771 2 2 C1.34 1.34 0.68 0.68 0 0 Z " fill="#EE6928" transform="translate(205,168)"/>
<path d="M0 0 C0 0.33 0 0.66 0 1 C-3.84661366 1.20245335 -7.25709392 0.80285901 -11 0 C-15.96013987 -1.05169883 -20.10935245 -1.63021585 -25 0 C-26.73324119 -0.08461492 -28.46392812 -0.23604355 -30.1875 -0.4375 C-31.08855469 -0.53933594 -31.98960937 -0.64117187 -32.91796875 -0.74609375 C-33.60503906 -0.82988281 -34.29210937 -0.91367188 -35 -1 C-35 -0.34 -35 0.32 -35 1 C-37.31 1 -39.62 1 -42 1 C-31.96881227 -9.03118773 -11.83716662 -3.57830678 0 0 Z " fill="#FEE5D8" transform="translate(271,94)"/>
<path d="M0 0 C2.1874142 3.66966739 2.80168747 7.53837588 3.5078125 11.6875 C3.63815887 12.42701904 3.76850525 13.16653809 3.90280151 13.9284668 C4.17630696 15.487923 4.44676156 17.04791698 4.71435547 18.60839844 C5.12377956 20.99289211 5.54352075 23.37539563 5.96484375 25.7578125 C6.22977832 27.27593505 6.49412123 28.794161 6.7578125 30.3125 C6.94526535 31.37827271 6.94526535 31.37827271 7.13650513 32.46557617 C7.69079801 35.72051831 8 38.68313365 8 42 C7.34 42 6.68 42 6 42 C5.93941406 41.36191406 5.87882812 40.72382813 5.81640625 40.06640625 C5.69072266 38.82697266 5.69072266 38.82697266 5.5625 37.5625 C5.48128906 36.73878906 5.40007812 35.91507813 5.31640625 35.06640625 C5.21069185 33.01337975 5.21069185 33.01337975 4 32 C3.79231771 30.52603261 3.63283983 29.0450874 3.5 27.5625 C3.20853056 24.15502495 3.20853056 24.15502495 2 21 C1.69208131 18.66922657 1.49104726 16.33758104 1.28125 13.99609375 C1.20467988 12.00416869 1.20467988 12.00416869 0 11 C-0.07226502 9.14712498 -0.0838122 7.29166122 -0.0625 5.4375 C-0.05347656 4.42558594 -0.04445313 3.41367188 -0.03515625 2.37109375 C-0.02355469 1.58863281 -0.01195312 0.80617187 0 0 Z " fill="#FDD6C7" transform="translate(271,168)"/>
<path d="M0 0 C6.55286186 0.56981407 13.52972141 2.25428507 18.77734375 6.40625 C20.9478797 9.23557482 20.3536381 12.62594469 20 16 C19.45061616 19.03335007 18.77353 22.01638427 18 25 C17.67 25 17.34 25 17 25 C17 19.39 17 13.78 17 8 C15.02 7.34 13.04 6.68 11 6 C11 5.34 11 4.68 11 4 C9.35 4 7.7 4 6 4 C6 3.34 6 2.68 6 2 C4.35 2 2.7 2 1 2 C0.67 1.34 0.34 0.68 0 0 Z " fill="#EC5B1F" transform="translate(210,145)"/>
<path d="M0 0 C0.495 1.485 0.495 1.485 1 3 C0.28972656 3.13277344 -0.42054688 3.26554688 -1.15234375 3.40234375 C-2.07144531 3.57894531 -2.99054688 3.75554687 -3.9375 3.9375 C-4.85402344 4.11152344 -5.77054687 4.28554687 -6.71484375 4.46484375 C-8.95289844 4.77714988 -8.95289844 4.77714988 -10 6 C-19.18420372 8.57835227 -28.56499516 8.19909741 -38 8 C-38.33 7.34 -38.66 6.68 -39 6 C-38.24460938 6.05800781 -37.48921875 6.11601562 -36.7109375 6.17578125 C-24.22844365 6.68735887 -11.82401635 3.94133878 0 0 Z " fill="#E64416" transform="translate(279,231)"/>
<path d="M0 0 C11.22 0.33 22.44 0.66 34 1 C25.42937815 5.28531093 16.59933683 4.37041924 7.5 2.5 C6.77296875 2.35691406 6.0459375 2.21382812 5.296875 2.06640625 C3.52990929 1.71766302 1.76474691 1.35980277 0 1 C0 0.67 0 0.34 0 0 Z " fill="#FEDAC5" transform="translate(230,234)"/>
<path d="M0 0 C0 3 0 3 -1.390625 4.39453125 C-2.00421875 4.86246094 -2.6178125 5.33039063 -3.25 5.8125 C-6.60660747 8.53680065 -8.64621746 11.35543349 -11 15 C-12.92564508 17.09288473 -14.94090199 19.03449735 -17 21 C-17.99 20.67 -18.98 20.34 -20 20 C-7.14893617 4.76595745 -7.14893617 4.76595745 0 0 Z " fill="#EA381C" transform="translate(385,199)"/>
<path d="M0 0 C0.66 0.33 1.32 0.66 2 1 C2 6.28 2 11.56 2 17 C-1.56311466 15.21844267 -3.35645475 13.83236991 -6 11 C-5.360625 10.835 -4.72125 10.67 -4.0625 10.5 C-1.83913184 9.22373282 -1.83913184 9.22373282 -1.546875 7.12109375 C-1.32825683 5.08430118 -1.16206908 3.0420704 -1 1 C-0.67 0.67 -0.34 0.34 0 0 Z " fill="#EAE6E4" transform="translate(237,362)"/>
<path d="M0 0 C0.495 0.99 0.495 0.99 1 2 C-2.12730104 6.11016708 -3.93328293 8.45224205 -9 10 C-17.48953388 10.95688062 -24.3973669 9.8442208 -32 6 C-32 5.34 -32 4.68 -32 4 C-30.37433394 4.47690204 -28.74948689 4.95659666 -27.125 5.4375 C-26.22007812 5.70433594 -25.31515625 5.97117187 -24.3828125 6.24609375 C-22 7 -22 7 -20 8 C-12.49215692 8.93848039 -8.04140616 6.33454048 -2 2 C-1.34 1.34 -0.68 0.68 0 0 Z " fill="#E63219" transform="translate(336,307)"/>
<path d="M0 0 C0 0.66 0 1.32 0 2 C1.051875 2.185625 1.051875 2.185625 2.125 2.375 C5.17656387 3.03838345 8.05340938 3.97211955 11 5 C11 5.66 11 6.32 11 7 C11.680625 6.938125 12.36125 6.87625 13.0625 6.8125 C16.81600023 7.05208512 19.59547738 8.45832938 23 10 C23.66 10 24.32 10 25 10 C25.33 11.32 25.66 12.64 26 14 C19.64138389 11.99201597 13.51743897 9.42766641 7.34375 6.921875 C2.93256443 5.14145673 -1.46025795 3.43360275 -6 2 C-2.25 0 -2.25 0 0 0 Z " fill="#E96D29" transform="translate(179,154)"/>
<path d="M0 0 C6.27 0 12.54 0 19 0 C19 0.66 19 1.32 19 2 C24.61 2.33 30.22 2.66 36 3 C28.15748483 6.92125759 19.81999141 4.47291714 11.5 3 C10.39140625 2.80921875 9.2828125 2.6184375 8.140625 2.421875 C5.42599799 1.95383586 2.71257905 1.47974117 0 1 C0 0.67 0 0.34 0 0 Z " fill="#E6573C" transform="translate(172,98)"/>
<path d="M0 0 C0.66 0 1.32 0 2 0 C2 2.97 2 5.94 2 9 C2.66 9 3.32 9 4 9 C4.06058594 9.63808594 4.12117188 10.27617187 4.18359375 10.93359375 C4.26738281 11.75988281 4.35117187 12.58617187 4.4375 13.4375 C4.51871094 14.26121094 4.59992188 15.08492187 4.68359375 15.93359375 C4.78930815 17.98662025 4.78930815 17.98662025 6 19 C6.07258946 21.18639453 6.08373783 23.37500389 6.0625 25.5625 C6.05347656 26.76003906 6.04445313 27.95757812 6.03515625 29.19140625 C6.02355469 30.11824219 6.01195312 31.04507813 6 32 C5.67 32 5.34 32 5 32 C4.15743719 27.79346033 3.32758687 23.58450944 2.5 19.375 C2.26152344 18.18519531 2.02304687 16.99539062 1.77734375 15.76953125 C1.55175781 14.61582031 1.32617188 13.46210938 1.09375 12.2734375 C0.88427734 11.21560059 0.67480469 10.15776367 0.45898438 9.06787109 C-0.00058707 5.99607597 -0.081281 3.10087004 0 0 Z " fill="#E53917" transform="translate(271,162)"/>
<path d="M0 0 C0 0.33 0 0.66 0 1 C-4.67201205 2.20568053 -9.21496292 2.09382426 -14 2 C-14 3.32 -14 4.64 -14 6 C-12.35 6 -10.7 6 -9 6 C-9 6.66 -9 7.32 -9 8 C-13.56454251 7.45660208 -16.9728176 6.20536179 -21 4 C-21 3.34 -21 2.68 -21 2 C-13.90673679 0.27669093 -7.29031024 -0.2494783 0 0 Z " fill="#EC5E13" transform="translate(166,141)"/>
<path d="M0 0 C1.32 0.33 2.64 0.66 4 1 C0.04533792 3.17341896 -3.91431341 5.33758201 -7.875 7.5 C-9.00292969 8.12003906 -10.13085938 8.74007813 -11.29296875 9.37890625 C-12.90751953 10.25869141 -12.90751953 10.25869141 -14.5546875 11.15625 C-15.54968262 11.70087891 -16.54467773 12.24550781 -17.56982422 12.80664062 C-20 14 -20 14 -22 14 C-22 13.34 -22 12.68 -22 12 C-21.01 12 -20.02 12 -19 12 C-19 11.01 -19 10.02 -19 9 C-15.535 8.505 -15.535 8.505 -12 8 C-11.67 7.01 -11.34 6.02 -11 5 C-7.535 4.505 -7.535 4.505 -4 4 C-4 3.34 -4 2.68 -4 2 C-2.68 2 -1.36 2 0 2 C0 1.34 0 0.68 0 0 Z " fill="#EA631D" transform="translate(212,319)"/>
<path d="M0 0 C5.12552327 -0.37503829 8.37794084 0.85404396 13 3 C18.00402899 4.99574177 22.56104322 5.40883905 27.875 5.625 C28.65875 5.66367188 29.4425 5.70234375 30.25 5.7421875 C32.16631367 5.83566622 34.08312319 5.91888495 36 6 C36 6.33 36 6.66 36 7 C27.94207128 8.61158574 21.5420056 8.25453179 13.875 5.625 C13.19824219 5.40328125 12.52148438 5.1815625 11.82421875 4.953125 C9.87879239 4.31342968 7.93911239 3.65854733 6 3 C4.84757812 2.61585937 3.69515625 2.23171875 2.5078125 1.8359375 C1.68023437 1.56007813 0.85265625 1.28421875 0 1 C0 0.67 0 0.34 0 0 Z " fill="#E14531" transform="translate(274,95)"/>
<path d="M0 0 C0.33 0.99 0.66 1.98 1 3 C-1.81767244 8.24065146 -6.13448761 12.64820258 -11 16 C-11.99 15.67 -12.98 15.34 -14 15 C-12.98679688 14.00419922 -12.98679688 14.00419922 -11.953125 12.98828125 C-11.06109375 12.10527344 -10.1690625 11.22226562 -9.25 10.3125 C-8.36828125 9.44238281 -7.4865625 8.57226562 -6.578125 7.67578125 C-4.21194702 5.21997532 -2.08107444 2.69858952 0 0 Z " fill="#ED5019" transform="translate(242,275)"/>
<path d="M0 0 C0.66 0 1.32 0 2 0 C0.2023143 5.64986935 0.2023143 5.64986935 -1.05859375 7.83203125 C-2.27866373 10.64173598 -2.2298599 12.88373662 -2.1875 15.9375 C-2.18105469 16.95714844 -2.17460938 17.97679687 -2.16796875 19.02734375 C-2.01221966 21.78374048 -1.61837386 24.31378395 -1 27 C-1.66 26.67 -2.32 26.34 -3 26 C-3 25.34 -3 24.68 -3 24 C-3.66 24 -4.32 24 -5 24 C-5.05428973 21.77110504 -5.09292338 19.54182529 -5.125 17.3125 C-5.15980469 15.45044922 -5.15980469 15.45044922 -5.1953125 13.55078125 C-5.01032021 10.18762143 -4.45767895 8.0014413 -3 5 C-2.34 5 -1.68 5 -1 5 C-0.67 3.35 -0.34 1.7 0 0 Z " fill="#EB7330" transform="translate(102,156)"/>
<path d="M0 0 C0.66 0 1.32 0 2 0 C1.95359375 0.88300781 1.9071875 1.76601563 1.859375 2.67578125 C1.55617678 12.75712212 3.44905457 20.10310667 8 29 C6.0625 28.3125 6.0625 28.3125 4 27 C3.25 24.375 3.25 24.375 3 22 C2.01 21.67 1.02 21.34 0 21 C0 14.07 0 7.14 0 0 Z " fill="#E66620" transform="translate(149,272)"/>
<path d="M0 0 C7.59498961 -0.26442904 14.57359158 0.39118425 22 2 C22 2.66 22 3.32 22 4 C17.375 6.125 17.375 6.125 14 5 C14.33 4.01 14.66 3.02 15 2 C14.33613281 2.09539062 13.67226563 2.19078125 12.98828125 2.2890625 C4.21792619 3.39015817 4.21792619 3.39015817 0 1 C0 0.67 0 0.34 0 0 Z " fill="#E53011" transform="translate(333,141)"/>
<path d="M0 0 C0.33 0 0.66 0 1 0 C1 3.96 1 7.92 1 12 C1.66 12 2.32 12 3 12 C3 12.66 3 13.32 3 14 C2.34 14 1.68 14 1 14 C1.54708727 16.53744315 1.54708727 16.53744315 3 19 C5.97980236 19.74664647 5.97980236 19.74664647 9 20 C9.66 20.66 10.32 21.32 11 22 C7.07765636 21.45269624 3.54220546 20.82170566 0 19 C-1.27603607 15.17189179 -0.86283987 11.76524893 -0.5625 7.8125 C-0.51029297 7.06291016 -0.45808594 6.31332031 -0.40429688 5.54101562 C-0.27486216 3.69362918 -0.13813482 1.84675629 0 0 Z " fill="#FEE0C8" transform="translate(219,212)"/>
<path d="M0 0 C0.66 0.33 1.32 0.66 2 1 C1.40832031 2.05058594 0.81664062 3.10117188 0.20703125 4.18359375 C-3.88106731 11.44517715 -7.96847452 18.70678808 -12 26 C-13.21994269 22.34017193 -12.49026663 21.41884698 -11 18 C-11 17.34 -11 16.68 -11 16 C-9.68 15.67 -8.36 15.34 -7 15 C-6.773125 14.01 -6.54625 13.02 -6.3125 12 C-5.04788156 7.48614293 -2.61694246 3.84550705 0 0 Z " fill="#FEE9CE" transform="translate(208,193)"/>
<path d="M0 0 C-0.56589844 0.40992188 -1.13179688 0.81984375 -1.71484375 1.2421875 C-2.44832031 1.78101563 -3.18179687 2.31984375 -3.9375 2.875 C-4.66839844 3.40867188 -5.39929688 3.94234375 -6.15234375 4.4921875 C-8.11098235 5.88012104 -8.11098235 5.88012104 -9 8 C-9.47474133 14.03915135 -8.98588121 19.29059151 -7 25 C-8.984375 23.515625 -8.984375 23.515625 -11 21 C-11.2906124 18.10550051 -11.38186045 15.62050065 -11.25 12.75 C-11.23195313 12.00492188 -11.21390625 11.25984375 -11.1953125 10.4921875 C-11.14835649 8.66090299 -11.07661652 6.83028351 -11 5 C-10.34 5 -9.68 5 -9 5 C-9 4.01 -9 3.02 -9 2 C-8.01 2 -7.02 2 -6 2 C-6 1.34 -6 0.68 -6 0 C-3.50907189 -1.24546405 -2.58919267 -0.7767578 0 0 Z " fill="#E53016" transform="translate(296,168)"/>
<path d="M0 0 C2.54186606 0.31094086 5.08348598 0.62370536 7.625 0.9375 C8.69427734 1.06801758 8.69427734 1.06801758 9.78515625 1.20117188 C13.87591961 1.70782605 17.93842635 2.2889043 22 3 C22 3.33 22 3.66 22 4 C18.93744039 4.0270491 15.8751214 4.04686298 12.8125 4.0625 C11.51602539 4.07506836 11.51602539 4.07506836 10.19335938 4.08789062 C5.99713231 4.10396812 2.09063114 4.07559038 -2 3 C-1.34 2.01 -0.68 1.02 0 0 Z " fill="#FEF1DE" transform="translate(150,95)"/>
<path d="M0 0 C0.66 0.33 1.32 0.66 2 1 C-0.25629815 3.84518796 -2.53232173 6.67392684 -4.8125 9.5 C-5.45509766 10.31082031 -6.09769531 11.12164062 -6.75976562 11.95703125 C-7.38173828 12.72402344 -8.00371094 13.49101563 -8.64453125 14.28125 C-9.50075073 15.34956055 -9.50075073 15.34956055 -10.37426758 16.43945312 C-12 18 -12 18 -15 18 C-14.21654285 16.82780457 -13.42297164 15.66236332 -12.625 14.5 C-12.18414062 13.8503125 -11.74328125 13.200625 -11.2890625 12.53125 C-10.65097656 11.77328125 -10.65097656 11.77328125 -10 11 C-9.34 11 -8.68 11 -8 11 C-7.938125 10.21625 -7.87625 9.4325 -7.8125 8.625 C-7.544375 7.75875 -7.27625 6.8925 -7 6 C-4.4375 4.6875 -4.4375 4.6875 -2 4 C-2 3.01 -2 2.02 -2 1 C-1.34 0.67 -0.68 0.34 0 0 Z " fill="#EA631F" transform="translate(147,96)"/>
<path d="M0 0 C0.66 0.33 1.32 0.66 2 1 C0.68 2.65 -0.64 4.3 -2 6 C2.62 6 7.24 6 12 6 C12 6.33 12 6.66 12 7 C-2.78132118 8.33257403 -2.78132118 8.33257403 -9 7 C-3.51752022 1.21293801 -3.51752022 1.21293801 0 0 Z " fill="#F84B1E" transform="translate(96,65)"/>
<path d="M0 0 C4.875 2.875 4.875 2.875 6 4 C6.08685603 5.56172745 6.10702219 7.12729344 6.09765625 8.69140625 C6.09443359 9.63564453 6.09121094 10.57988281 6.08789062 11.55273438 C6.07951172 12.54595703 6.07113281 13.53917969 6.0625 14.5625 C6.05798828 15.55958984 6.05347656 16.55667969 6.04882812 17.58398438 C6.03700007 20.05604849 6.02051849 22.52799518 6 25 C5.67 25 5.34 25 5 25 C5 19.72 5 14.44 5 9 C4.34 9 3.68 9 3 9 C2.01 6.03 1.02 3.06 0 0 Z " fill="#C54515" transform="translate(232,375)"/>
<path d="M0 0 C12.54 0 25.08 0 38 0 C38 0.66 38 1.32 38 2 C37.01 2.33 36.02 2.66 35 3 C34.505 2.505 34.505 2.505 34 2 C31.48119483 1.84011509 28.98657734 1.74065775 26.46484375 1.68359375 C25.33496788 1.6524221 25.33496788 1.6524221 24.18226624 1.62062073 C21.7674401 1.55504575 19.35250202 1.49620379 16.9375 1.4375 C15.30402471 1.3943223 13.6705609 1.35070827 12.03710938 1.30664062 C8.02485536 1.19935638 4.01248836 1.09811179 0 1 C0 0.67 0 0.34 0 0 Z " fill="#BD2903" transform="translate(248,460)"/>
<path d="M0 0 C0.9075 0.804375 1.815 1.60875 2.75 2.4375 C7.94748336 6.90626404 13.49029027 10.92878591 19 15 C15.30581799 15 13.22163822 13.71820705 10 12 C10 11.34 10 10.68 10 10 C9.34 10 8.68 10 8 10 C8 9.34 8 8.68 8 8 C7.01 8 6.02 8 5 8 C5 7.34 5 6.68 5 6 C2.525 5.01 2.525 5.01 0 4 C0 2.68 0 1.36 0 0 Z " fill="#ED651F" transform="translate(187,339)"/>
<path d="M0 0 C0.66 0.99 1.32 1.98 2 3 C1.67 3.99 1.34 4.98 1 6 C0.34 6 -0.32 6 -1 6 C-1 10.62 -1 15.24 -1 20 C-0.34 20 0.32 20 1 20 C1.33 20.99 1.66 21.98 2 23 C1.34 23.66 0.68 24.32 0 25 C-3.39223261 18.78090688 -3.75685814 13.01549274 -3 6 C-2.23785777 3.63911112 -1.38584103 2.07876154 0 0 Z " fill="#FEF0DA" transform="translate(102,160)"/>
<path d="M0 0 C0.64453125 1.765625 0.64453125 1.765625 1 4 C0.07421875 5.921875 0.07421875 5.921875 -1.3125 7.75 C-1.76238281 8.36359375 -2.21226563 8.9771875 -2.67578125 9.609375 C-3.11277344 10.06828125 -3.54976563 10.5271875 -4 11 C-4.66 11 -5.32 11 -6 11 C-6.33 12.32 -6.66 13.64 -7 15 C-7.99 14.67 -8.98 14.34 -10 14 C-6.86427316 9.17580486 -3.4851448 4.57715684 0 0 Z " fill="#FEE8D0" transform="translate(123,129)"/>
<path d="M0 0 C1.87890625 0.28125 1.87890625 0.28125 4 1 C5.08984375 2.53125 5.08984375 2.53125 5.9375 4.5 C7.73592867 8.49970536 9.85268804 12.18502801 12.14453125 15.921875 C13.16571402 18.40255644 12.90892631 19.52415166 12 22 C11.63648438 21.24976563 11.27296875 20.49953125 10.8984375 19.7265625 C7.5666621 12.9434095 4.00013929 6.41157078 0 0 Z " fill="#E6351E" transform="translate(388,145)"/>
<path d="M0 0 C0 0.99 0 1.98 0 3 C-0.99 3.33 -1.98 3.66 -3 4 C-3.33 4.99 -3.66 5.98 -4 7 C-7 9 -7 9 -11 9 C-11.33 9.99 -11.66 10.98 -12 12 C-13.65 12 -15.3 12 -17 12 C-15.70663166 9.41326333 -14.42338191 9.01352245 -11.875 7.6875 C-7.64512184 5.4135175 -3.84940222 2.86657612 0 0 Z " fill="#EC692D" transform="translate(221,295)"/>
<path d="M0 0 C0.33 0 0.66 0 1 0 C1.55353075 15.92938497 1.55353075 15.92938497 -2 22 C-2.93979382 18.96143341 -2.99875808 16.79304528 -2.44140625 13.671875 C-2.30283203 12.87265625 -2.16425781 12.0734375 -2.02148438 11.25 C-1.87001953 10.425 -1.71855469 9.6 -1.5625 8.75 C-1.41490234 7.90953125 -1.26730469 7.0690625 -1.11523438 6.203125 C-0.7508064 4.13411456 -0.37637459 2.06687061 0 0 Z " fill="#FDDBBE" transform="translate(224,184)"/>
<path d="M0 0 C0.66 0 1.32 0 2 0 C0.55049595 4.35647645 -1.67747112 7.31757289 -4.625 10.8125 C-5.85089844 12.27623047 -5.85089844 12.27623047 -7.1015625 13.76953125 C-8.04128906 14.87361328 -8.04128906 14.87361328 -9 16 C-9.33 15.01 -9.66 14.02 -10 13 C-9.319375 12.38125 -9.319375 12.38125 -8.625 11.75 C-6.94049626 9.93591905 -6.00734029 8.24714373 -5 6 C-4.34 6 -3.68 6 -3 6 C-3 4.68 -3 3.36 -3 2 C-2.01 2 -1.02 2 0 2 C0 1.34 0 0.68 0 0 Z " fill="#E96219" transform="translate(131,115)"/>
<path d="M0 0 C0.33 0 0.66 0 1 0 C1 8.58 1 17.16 1 26 C-2 22 -2 22 -1.6875 19.765625 C-1.460625 18.85296875 -1.23375 17.9403125 -1 17 C-0.95638227 14.24117858 -0.95042174 11.50655106 -1 8.75 C-1.0455931 6.16031188 -1.04732509 3.59104894 -1 1 C-0.67 0.67 -0.34 0.34 0 0 Z " fill="#E63A01" transform="translate(236,427)"/>
<path d="M0 0 C3 0 3 0 4.75390625 1.6796875 C5.64916016 2.76636719 5.64916016 2.76636719 6.5625 3.875 C7.16191406 4.59429687 7.76132813 5.31359375 8.37890625 6.0546875 C8.91386719 6.69664062 9.44882813 7.33859375 10 8 C10.66 8.66 11.32 9.32 12 10 C11.67 10.99 11.34 11.98 11 13 C9 12 9 12 8 9 C6.68 9 5.36 9 4 9 C3.71125 8.071875 3.4225 7.14375 3.125 6.1875 C2.1125 2.90208333 2.1125 2.90208333 0 0 Z " fill="#ED6112" transform="translate(128,215)"/>
<path d="M0 0 C0 0.33 0 0.66 0 1 C-2.31 1.66 -4.62 2.32 -7 3 C-7 3.99 -7 4.98 -7 6 C-7.86625 6.0928125 -7.86625 6.0928125 -8.75 6.1875 C-11.92448483 7.33384174 -13.12848575 9.25956842 -15 12 C-15 12.66 -15 13.32 -15 14 C-15.66 14 -16.32 14 -17 14 C-17.33 13.01 -17.66 12.02 -18 11 C-16.33325061 9.14336777 -14.64581021 7.31773139 -12.9375 5.5 C-12.47150391 4.97535156 -12.00550781 4.45070313 -11.52539062 3.91015625 C-7.77995735 -0.01363099 -5.32102343 -0.58458185 0 0 Z " fill="#FA5406" transform="translate(93,72)"/>
<path d="M0 0 C0.33 0 0.66 0 1 0 C0.48378772 6.83981276 -1.48590969 12.63876684 -4 19 C-4.33 19 -4.66 19 -5 19 C-4.91245449 17.24908981 -4.80426627 15.49920449 -4.6875 13.75 C-4.62949219 12.77546875 -4.57148438 11.8009375 -4.51171875 10.796875 C-3.94775561 7.71445052 -2.98946506 6.36248976 -1 4 C-0.29485154 1.85266073 -0.29485154 1.85266073 0 0 Z " fill="#E95F12" transform="translate(156,251)"/>
<path d="M0 0 C0 0.66 0 1.32 0 2 C-13.69914291 7.04705265 -13.69914291 7.04705265 -20 5 C-17.41877492 4.15960114 -14.83536099 3.32749444 -12.25 2.5 C-11.15558594 2.14228516 -11.15558594 2.14228516 -10.0390625 1.77734375 C-9.33007812 1.55175781 -8.62109375 1.32617188 -7.890625 1.09375 C-7.24125977 0.88427734 -6.59189453 0.67480469 -5.92285156 0.45898438 C-4 0 -4 0 0 0 Z " fill="#E64127" transform="translate(296,143)"/>
<path d="M0 0 C5.93002267 -0.37851209 10.47239641 0.89424625 16 3 C16 3.99 16 4.98 16 6 C14.26982492 5.54548816 12.54090123 5.08621143 10.8125 4.625 C9.84957031 4.36976563 8.88664063 4.11453125 7.89453125 3.8515625 C5.17789793 3.05233704 2.60862825 2.0968638 0 1 C0 0.67 0 0.34 0 0 Z " fill="#ED6624" transform="translate(157,149)"/>
<path d="M0 0 C0.66 0.33 1.32 0.66 2 1 C2 1.99 2 2.98 2 4 C2.66 4 3.32 4 4 4 C4.45375 4.969375 4.9075 5.93875 5.375 6.9375 C6.65786221 10.07079582 6.65786221 10.07079582 9 11 C8.67 11.99 8.34 12.98 8 14 C4.41897159 10.61791761 1.43226526 7.30323854 -1 3 C-0.67 2.01 -0.34 1.02 0 0 Z " fill="#E83216" transform="translate(379,129)"/>
<path d="M0 0 C0.33 0 0.66 0 1 0 C1.02696365 1.79158489 1.04637917 3.58328473 1.0625 5.375 C1.07410156 6.37273437 1.08570313 7.37046875 1.09765625 8.3984375 C1 11 1 11 0 13 C-0.66 13 -1.32 13 -2 13 C-2 14.65 -2 16.3 -2 18 C-2.99 18.33 -3.98 18.66 -5 19 C-4.80664062 18.38253906 -4.61328125 17.76507813 -4.4140625 17.12890625 C-2.67003849 11.45651132 -1.21782106 5.80806965 0 0 Z " fill="#FDE0C2" transform="translate(158,247)"/>
<path d="M0 0 C0 0.66 0 1.32 0 2 C2.31 2.33 4.62 2.66 7 3 C7.33 4.65 7.66 6.3 8 8 C7.030625 7.401875 6.06125 6.80375 5.0625 6.1875 C0.91015819 3.7964999 -3.42562895 2.3691995 -8 1 C-8 0.67 -8 0.34 -8 0 C-2.25 -1.125 -2.25 -1.125 0 0 Z " fill="#FEE8D2" transform="translate(222,145)"/>
<path d="M0 0 C1 3 1 3 0.0625 5.125 C-1.40836465 9.10498671 -1.16460557 12.80255788 -1 17 C-1.99 16.34 -2.98 15.68 -4 15 C-4.84228751 8.98366062 -2.93724458 5.04838912 0 0 Z " fill="#E97B45" transform="translate(197,215)"/>
<path d="M0 0 C2.97 0.495 2.97 0.495 6 1 C6 1.66 6 2.32 6 3 C6.66 3 7.32 3 8 3 C8.8723412 5.99480917 9.10829766 8.63575911 9.0625 11.75 C9.05347656 12.54921875 9.04445312 13.3484375 9.03515625 14.171875 C9.02355469 14.77515625 9.01195312 15.3784375 9 16 C8.67 16 8.34 16 8 16 C7.92523438 15.33613281 7.85046875 14.67226562 7.7734375 13.98828125 C6.88001677 7.65615172 6.88001677 7.65615172 2.875 2.9375 C1.92625 2.298125 0.9775 1.65875 0 1 C0 0.67 0 0.34 0 0 Z " fill="#EB742F" transform="translate(205,168)"/>
<path d="M0 0 C1.9375 0.8125 1.9375 0.8125 4 2 C4.33 2.99 4.66 3.98 5 5 C5.66 5 6.32 5 7 5 C7 5.66 7 6.32 7 7 C7.66 7 8.32 7 9 7 C10.06775224 8.96466413 11.06553465 10.96855359 12 13 C11.67 13.66 11.34 14.32 11 15 C9.16374012 12.68977044 7.33088988 10.37697874 5.5 8.0625 C4.71302734 7.0734668 4.71302734 7.0734668 3.91015625 6.06445312 C0 1.11328125 0 1.11328125 0 0 Z " fill="#E6391D" transform="translate(358,105)"/>
<path d="M0 0 C0.33 0 0.66 0 1 0 C1.03738281 1.16917969 1.07476562 2.33835937 1.11328125 3.54296875 C1.1789628 5.09117675 1.24540939 6.63935242 1.3125 8.1875 C1.33505859 8.95642578 1.35761719 9.72535156 1.38085938 10.51757812 C1.59920528 15.14254148 2.13746744 18.17049934 5 22 C4.34 22.33 3.68 22.66 3 23 C3 22.34 3 21.68 3 21 C2.01 20.67 1.02 20.34 0 20 C0 13.4 0 6.8 0 0 Z " fill="#CB4419" transform="translate(237,436)"/>
<path d="M0 0 C-2.60542016 1.73694677 -4.58342775 2.69100448 -7.5 3.6875 C-8.2734375 3.95949219 -9.046875 4.23148437 -9.84375 4.51171875 C-12 5 -12 5 -15 4 C-14.34 3.01 -13.68 2.02 -13 1 C-8.62250319 0.21061533 -4.45083248 -0.13908851 0 0 Z " fill="#EA4730" transform="translate(226,95)"/>
<path d="M0 0 C0.66 0.33 1.32 0.66 2 1 C-1 5.5 -1 5.5 -4 10 C-4.66 10 -5.32 10 -6 10 C-5.58578031 5.16743695 -3.53586014 3.17320782 0 0 Z " fill="#EC280C" transform="translate(351,234)"/>
<path d="M0 0 C3 4 3 4 3.5 7.5 C3 11 3 11 0.5 13.4375 C-0.7375 14.2109375 -0.7375 14.2109375 -2 15 C-2 14.01 -2 13.02 -2 12 C-1.34 12 -0.68 12 0 12 C0 8.04 0 4.08 0 0 Z " fill="#E64025" transform="translate(303,219)"/>
<path d="M0 0 C1.32 0.33 2.64 0.66 4 1 C3.91231752 2.5843317 3.80412671 4.16753567 3.6875 5.75 C3.62949219 6.63171875 3.57148438 7.5134375 3.51171875 8.421875 C2.9358819 11.32303774 1.92403852 12.79225607 0 15 C-0.99 14.67 -1.98 14.34 -3 14 C-2.34 13.484375 -1.68 12.96875 -1 12.4375 C1.68675779 9.16301394 1.37584533 7.13429864 1 3 C0.67 2.01 0.34 1.02 0 0 Z " fill="#FEE6D8" transform="translate(304,220)"/>
<path d="M0 0 C0 0.66 0 1.32 0 2 C1.051875 2.185625 1.051875 2.185625 2.125 2.375 C5.17656387 3.03838345 8.05340938 3.97211955 11 5 C11 5.33 11 5.66 11 6 C4.80481527 5.58411954 -0.26689311 4.39748106 -6 2 C-2.25 0 -2.25 0 0 0 Z " fill="#ED651D" transform="translate(179,154)"/>
<path d="M0 0 C0.33 0 0.66 0 1 0 C0.54996653 5.62541841 -0.68441485 8.61487125 -4 13 C-5 11 -5 11 -4.51171875 9.16015625 C-4.23972656 8.46792969 -3.96773437 7.77570313 -3.6875 7.0625 C-3.42324219 6.37285156 -3.15898437 5.68320313 -2.88671875 4.97265625 C-2 3 -2 3 0 0 Z " fill="#F05F1D" transform="translate(202,207)"/>
<path d="M0 0 C0.66 0.33 1.32 0.66 2 1 C-0.31 3.64 -2.62 6.28 -5 9 C-5.33 7.68 -5.66 6.36 -6 5 C-4.14944202 2.76656796 -2.59616917 1.29808458 0 0 Z " fill="#FEE3D8" transform="translate(381,199)"/>
<path d="M0 0 C0 0.66 0 1.32 0 2 C0.66 2 1.32 2 2 2 C2.33 3.65 2.66 5.3 3 7 C2.29875 6.195625 1.5975 5.39125 0.875 4.5625 C-2.26291593 1.76566189 -3.88758763 1.28691249 -8 1 C-8 0.34 -8 -0.32 -8 -1 C-4.59745511 -2.2151946 -3.06748874 -1.86240388 0 0 Z " fill="#E7321B" transform="translate(352,94)"/>
<path d="M0 0 C0.33 0 0.66 0 1 0 C1 2.97 1 5.94 1 9 C0.34 9 -0.32 9 -1 9 C-1 12.3 -1 15.6 -1 19 C-1.33 19 -1.66 19 -2 19 C-2.19818283 12.29481414 -2.30844801 6.34823202 0 0 Z " fill="#FEDBBB" transform="translate(152,267)"/>
<path d="M0 0 C0.33 0.66 0.66 1.32 1 2 C0.67 2.99 0.34 3.98 0 5 C0.66 5 1.32 5 2 5 C2.33 7.64 2.66 10.28 3 13 C0.30062548 10.73600847 -0.89462199 9.36882304 -1.875 5.9375 C-2 3 -2 3 0 0 Z " fill="#FFEAD2" transform="translate(257,265)"/>
<path d="M0 0 C0.33 0.99 0.66 1.98 1 3 C3.31 3.33 5.62 3.66 8 4 C8.33 4.99 8.66 5.98 9 7 C9.99 7.33 10.98 7.66 12 8 C11.01 8.495 11.01 8.495 10 9 C7.3984375 7.78515625 7.3984375 7.78515625 4.375 6.0625 C3.37210937 5.49660156 2.36921875 4.93070312 1.3359375 4.34765625 C0.56507813 3.90292969 -0.20578125 3.45820313 -1 3 C-0.67 2.01 -0.34 1.02 0 0 Z " fill="#E73923" transform="translate(282,316)"/>
<path d="M0 0 C0.66 0.33 1.32 0.66 2 1 C-0.3125 3.5 -0.3125 3.5 -3 6 C-3.99 6 -4.98 6 -6 6 C-6 6.66 -6 7.32 -6 8 C-6.99 7.67 -7.98 7.34 -9 7 C-6.03716687 4.61327331 -3.05729491 2.2646629 0 0 Z " fill="#FEE8DD" transform="translate(294,239)"/>
<path d="M0 0 C0.66 0.33 1.32 0.66 2 1 C-0.31 4.63 -2.62 8.26 -5 12 C-6.2077558 8.37673261 -5.54311128 7.35853631 -4 4 C-3.01 4 -2.02 4 -1 4 C-0.67 2.68 -0.34 1.36 0 0 Z " fill="#E8641E" transform="translate(110,144)"/>
<path d="M0 0 C0.75 1.6875 0.75 1.6875 1 4 C-0.75 6.75 -0.75 6.75 -3 9 C-3.99 9 -4.98 9 -6 9 C-4.47291037 5.56404834 -2.40072955 2.88087546 0 0 Z " fill="#FDEBD2" transform="translate(130,120)"/>
<path d="M0 0 C1 4 1 4 0.00390625 5.703125 C-1.33072917 7.13541667 -2.66536458 8.56770833 -4 10 C-4.99 9.67 -5.98 9.34 -7 9 C-4.69 6.03 -2.38 3.06 0 0 Z " fill="#EB3517" transform="translate(344,297)"/>
<path d="M0 0 C1.24546405 2.49092811 0.7767578 3.41080733 0 6 C-0.66 6 -1.32 6 -2 6 C-2.103125 6.639375 -2.20625 7.27875 -2.3125 7.9375 C-2.539375 8.618125 -2.76625 9.29875 -3 10 C-3.99 10.33 -4.98 10.66 -6 11 C-4.54955729 6.89041233 -2.48889248 3.56741255 0 0 Z " fill="#FEE7C5" transform="translate(109,149)"/>
<path d="M0 0 C0.66 0 1.32 0 2 0 C2 0.99 2 1.98 2 3 C2.66 3 3.32 3 4 3 C4 4.32 4 5.64 4 7 C4.99 7.33 5.98 7.66 7 8 C6.01 9.32 5.02 10.64 4 12 C2.68 8.04 1.36 4.08 0 0 Z " fill="#F5570C" transform="translate(103,361)"/>
<path d="M0 0 C0.66 0.33 1.32 0.66 2 1 C2 3.31 2 5.62 2 8 C1.01 8.33 0.02 8.66 -1 9 C-1.09765625 2.84765625 -1.09765625 2.84765625 -1 1 C-0.67 0.67 -0.34 0.34 0 0 Z " fill="#E6E8E2" transform="translate(237,362)"/>
<path d="M0 0 C0.66 0 1.32 0 2 0 C2 0.66 2 1.32 2 2 C2.66 2 3.32 2 4 2 C5.49821059 5.37097383 6 7.20442119 6 11 C2.90407165 7.4912812 1.25805377 4.50802601 0 0 Z " fill="#FEE8D7" transform="translate(291,195)"/>
<path d="M0 0 C0.66 0.33 1.32 0.66 2 1 C1.67 1.66 1.34 2.32 1 3 C5.455 3.99 5.455 3.99 10 5 C10 5.66 10 6.32 10 7 C5.43545749 6.45660208 2.0271824 5.20536179 -2 3 C-2 2.34 -2 1.68 -2 1 C-1.34 0.67 -0.68 0.34 0 0 Z " fill="#E27134" transform="translate(147,142)"/>
<path d="M0 0 C0.66 0.33 1.32 0.66 2 1 C1.67 1.66 1.34 2.32 1 3 C4.63 3 8.26 3 12 3 C12 3.33 12 3.66 12 4 C6.72 4 1.44 4 -4 4 C-2.68 2.68 -1.36 1.36 0 0 Z " fill="#D13322" transform="translate(303,346)"/>
<path d="M0 0 C5.75 1.875 5.75 1.875 8 3 C8 3.66 8 4.32 8 5 C8.99 5 9.98 5 11 5 C11.33 5.99 11.66 6.98 12 8 C7.44328408 6.48109469 3.68276708 4.04597738 0 1 C0 0.67 0 0.34 0 0 Z " fill="#EC6B28" transform="translate(207,240)"/>
<path d="M0 0 C3.96 0 7.92 0 12 0 C12 0.33 12 0.66 12 1 C8.7 1.33 5.4 1.66 2 2 C2.33 2.99 2.66 3.98 3 5 C2.01 5.495 2.01 5.495 1 6 C0.67 4.02 0.34 2.04 0 0 Z " fill="#FDE1CC" transform="translate(143,141)"/>
<path d="M0 0 C1.98 0.99 1.98 0.99 4 2 C4.75 5.625 4.75 5.625 5 9 C4.34 9 3.68 9 3 9 C2.01 6.03 1.02 3.06 0 0 Z " fill="#E04B10" transform="translate(232,375)"/>
<path d="M0 0 C3.74281699 2.38179263 6.97727468 4.74475735 10 8 C5.17965738 7.58682778 3.09007389 5.61980085 0 2 C0 1.34 0 0.68 0 0 Z " fill="#E55F24" transform="translate(222,367)"/>
<path d="M0 0 C3.82097239 0.53069061 6.06171403 1.49701566 9 4 C8.67 4.99 8.34 5.98 8 7 C6.66382648 6.02471263 5.3311249 5.04466681 4 4.0625 C3.2575 3.51722656 2.515 2.97195313 1.75 2.41015625 C1.1725 1.94480469 0.595 1.47945313 0 1 C0 0.67 0 0.34 0 0 Z " fill="#FEE0D3" transform="translate(263,282)"/>
<path d="M0 0 C1.77226453 0.28284018 3.542788 0.57660498 5.3125 0.875 C6.29863281 1.03742188 7.28476563 1.19984375 8.30078125 1.3671875 C11 2 11 2 14 4 C8.34605369 4.34615998 4.96993194 3.43425238 0 1 C0 0.67 0 0.34 0 0 Z " fill="#E66A24" transform="translate(196,141)"/>
<path d="M0 0 C1.65 0 3.3 0 5 0 C3.5361389 4.39158329 1.02168662 4.87947433 -3 7 C-2.34 5.68 -1.68 4.36 -1 3 C-0.34 3 0.32 3 1 3 C0.67 2.01 0.34 1.02 0 0 Z " fill="#DE250C" transform="translate(275,464)"/>
<path d="M0 0 C0.33 0.99 0.66 1.98 1 3 C-1.75078884 3.91692961 -3.35948913 4.10886083 -6.1875 4.0625 C-8.0746875 4.0315625 -8.0746875 4.0315625 -10 4 C-6.71536341 1.81024227 -3.79303725 1.00193437 0 0 Z " fill="#E3482B" transform="translate(279,231)"/>
<path d="M0 0 C2.31 0 4.62 0 7 0 C7 0.66 7 1.32 7 2 C2.375 4.125 2.375 4.125 -1 3 C-0.67 2.01 -0.34 1.02 0 0 Z " fill="#E33D1E" transform="translate(348,143)"/>
<path d="M0 0 C0.33 0.66 0.66 1.32 1 2 C-1.31 4.64 -3.62 7.28 -6 10 C-6.66 9.67 -7.32 9.34 -8 9 C-5.36 6.03 -2.72 3.06 0 0 Z " fill="#F8411B" transform="translate(175,23)"/>
<path d="M0 0 C-2.2551922 2.2551922 -4.0047587 2.97723468 -7 4 C-7.99 4 -8.98 4 -10 4 C-9.67 3.01 -9.34 2.02 -9 1 C-6.03421164 -0.16513114 -3.15436364 -0.08762121 0 0 Z " fill="#E75A1F" transform="translate(234,311)"/>
<path d="M0 0 C0.33 0 0.66 0 1 0 C3.11161731 9.41002278 3.11161731 9.41002278 4 14 C2 12.625 2 12.625 0 10 C-0.35791096 6.6419531 -0.23115823 3.36463643 0 0 Z " fill="#E53B22" transform="translate(285,179)"/>
<path d="M0 0 C2.46800047 1.15173355 4.04783565 2.04783565 6 4 C6.26991906 6.68839385 6.08737357 9.29141936 6 12 C5.67 12 5.34 12 5 12 C4.87625 10.329375 4.87625 10.329375 4.75 8.625 C4.42126213 4.94246056 4.42126213 4.94246056 1.9375 3.5625 C1.298125 3.376875 0.65875 3.19125 0 3 C0 2.01 0 1.02 0 0 Z " fill="#F0713D" transform="translate(224,149)"/>
<path d="M0 0 C3.3 0.33 6.6 0.66 10 1 C6.38863788 2.80568106 5.455469 3.24851563 1.75 3.125 C-0.10625 3.063125 -0.10625 3.063125 -2 3 C-1.34 2.01 -0.68 1.02 0 0 Z " fill="#FEE3C7" transform="translate(150,95)"/>
<path d="M0 0 C0.33 0 0.66 0 1 0 C1.33 3.96 1.66 7.92 2 12 C1.01 12.66 0.02 13.32 -1 14 C-0.67 9.38 -0.34 4.76 0 0 Z " fill="#EC5B0D" transform="translate(214,175)"/>
<path d="M0 0 C1.98 0.99 1.98 0.99 4 2 C3.67 3.98 3.34 5.96 3 8 C2.67 6.68 2.34 5.36 2 4 C1.34 4 0.68 4 0 4 C0 2.68 0 1.36 0 0 Z " fill="#FEDFCE" transform="translate(308,333)"/>
<path d="M0 0 C0 3 0 3 -1.3125 4.38671875 C-2.875 5.59114583 -4.4375 6.79557292 -6 8 C-5.65120368 4.74456771 -4.97866739 3.98126893 -2.4375 1.75 C-1.633125 1.1725 -0.82875 0.595 0 0 Z " fill="#EC2508" transform="translate(385,199)"/>
<path d="M0 0 C5.94 1.485 5.94 1.485 12 3 C12 3.33 12 3.66 12 4 C9.125 4.625 9.125 4.625 6 5 C5.34 4.34 4.68 3.68 4 3 C1.93125966 2.3574765 1.93125966 2.3574765 0 2 C0 1.34 0 0.68 0 0 Z " fill="#FEDFD8" transform="translate(284,99)"/>
<path d="M0 0 C1.65 1.65 3.3 3.3 5 5 C3.35 5.66 1.7 6.32 0 7 C0 4.69 0 2.38 0 0 Z " fill="#CCCCCC" transform="translate(274,425)"/>
<path d="M0 0 C2.375 0.1875 2.375 0.1875 5 1 C6.3125 3.5625 6.3125 3.5625 7 6 C5.83054208 5.19152271 4.66449539 4.37810888 3.5 3.5625 C2.8503125 3.11003906 2.200625 2.65757812 1.53125 2.19140625 C1.0259375 1.79824219 0.520625 1.40507812 0 1 C0 0.67 0 0.34 0 0 Z " fill="#FCDAC9" transform="translate(231,373)"/>
<path d="M0 0 C3.36591866 1.44253657 5.51047079 3.33264727 8 6 C2.33846154 4.52307692 2.33846154 4.52307692 0.625 1.875 C0.41875 1.25625 0.2125 0.6375 0 0 Z " fill="#E36121" transform="translate(211,359)"/>
<path d="M0 0 C0.66 0.33 1.32 0.66 2 1 C0.75 3.5 0.75 3.5 -1 6 C-2.32 6 -3.64 6 -5 6 C-3.86695008 2.60085025 -2.87481525 1.94745549 0 0 Z " fill="#F71F0B" transform="translate(309,343)"/>
<path d="M0 0 C0.66 1.32 1.32 2.64 2 4 C1.67 4.66 1.34 5.32 1 6 C0.34 6 -0.32 6 -1 6 C-1 6.99 -1 7.98 -1 9 C-1.66 9 -2.32 9 -3 9 C-2.01 6.03 -1.02 3.06 0 0 Z " fill="#ED412D" transform="translate(348,288)"/>
<path d="M0 0 C0.99 0.66 1.98 1.32 3 2 C1.35 3.32 -0.3 4.64 -2 6 C-2 2 -2 2 0 0 Z " fill="#FEE0D5" transform="translate(348,233)"/>
<path d="M0 0 C0 0.66 0 1.32 0 2 C-1.75 3.6875 -1.75 3.6875 -4 5 C-6.25 4.6875 -6.25 4.6875 -8 4 C-2.25 0 -2.25 0 0 0 Z " fill="#FEE1D7" transform="translate(298,167)"/>
<path d="M0 0 C-1.24976756 3.65316671 -1.67098753 4.78065836 -5 7 C-4.625 4.0625 -4.625 4.0625 -4 1 C-2 0 -2 0 0 0 Z " fill="#E4611C" transform="translate(121,131)"/>
</svg>
